<svg xmlns="http://www.w3.org/2000/svg" width="318" height="254" viewBox="0 0 318 254">
    <defs>
        <filter id="a" width="120.6%" height="114.6%" x="-10.3%" y="-7.3%" filterUnits="objectBoundingBox">
            <feOffset dx="3" dy="3" in="SourceAlpha" result="shadowOffsetOuter1"/>
            <feGaussianBlur in="shadowOffsetOuter1" result="shadowBlurOuter1" stdDeviation="7.5"/>
            <feColorMatrix in="shadowBlurOuter1" result="shadowMatrixOuter1" values="0 0 0 0 0 0 0 0 0 0 0 0 0 0 0 0 0 0 0.146607299 0"/>
            <feMerge>
                <feMergeNode in="shadowMatrixOuter1"/>
                <feMergeNode in="SourceGraphic"/>
            </feMerge>
        </filter>
    </defs>
    <g fill="none" fill-rule="evenodd" filter="url(#a)" transform="translate(-39 12)">
        <path stroke="#FFCE8A" d="M-41.316-63.34c25.248 27.546 150.31 28.97 159.982 87.863 9.672 58.893 50.445-63.18 89.161-28.97 38.717 34.21 43.837 190.738 86.543 126.392s82.374-309.555-32.776-262.678C146.444-93.855-66.564-90.887-41.316-63.34z"/>
        <path stroke="#464BB8" d="M151.75-66.863c0 48.9 19.025 105 105 105 85.974 0 79.5 69.096 79.5 174 0 4.156-3.263 38 76 38 79.262 0 9-361 4.5-361s-265-4.9-265 44z"/>
        <path stroke="#DE5650" d="M218.75-58.5c0 50.5 35 82 76 82 64.618 0 49.344 80.25 80.25 80.25"/>
        <g transform="translate(225.75 -49)">
            <rect width="10" height="64" fill="#464BB8" rx="1"/>
            <rect width="10" height="9" y="66" fill="#DE5650" rx="1"/>
        </g>
        <g transform="translate(250.75 -49)">
            <rect width="10" height="39" fill="#464BB8" rx="1"/>
            <rect width="10" height="39" y="41" fill="#DE5650" rx="1"/>
        </g>
        <g transform="translate(275.75 -49)">
            <rect width="10" height="61" fill="#464BB8" rx="1"/>
            <rect width="10" height="61" y="63" fill="#DE5650" rx="1"/>
            <rect width="10" height="21" y="126" fill="#FFCE8A" rx="1"/>
        </g>
        <g transform="translate(300.75 -74)">
            <rect width="10" height="111" fill="#464BB8" rx="1"/>
            <rect width="10" height="89" y="113" fill="#DE5650" rx="1"/>
            <rect width="10" height="38" y="204" fill="#FFCE8A" rx="1"/>
        </g>
        <g transform="translate(200.75 -88)">
            <rect width="10" height="111" fill="#464BB8" rx="1"/>
            <rect width="10" height="8" y="113" fill="#DE5650" rx="1" transform="matrix(1 0 0 -1 0 234)"/>
            <rect width="10" height="9" x="50" y="121" fill="#FFCE8A" rx="1" transform="matrix(1 0 0 -1 0 251)"/>
        </g>
        <g transform="translate(175.75 -126)">
            <rect width="10" height="21" y="113" fill="#DE5650" rx="1" transform="matrix(1 0 0 -1 0 247)"/>
            <rect width="10" height="17" y="136" fill="#FFCE8A" rx="1"/>
        </g>
        <g transform="translate(150.75 -113)">
            <rect width="10" height="111" fill="#464BB8" rx="1"/>
            <rect width="10" height="21" y="113" fill="#DE5650" rx="1" transform="matrix(1 0 0 -1 0 247)"/>
        </g>
        <rect width="10" height="38" y="136" fill="#FFCE8A" rx="1" transform="translate(125.75 -151)"/>
        <g transform="translate(100.75 -126)">
            <rect width="10" height="10" y="113" fill="#DE5650" rx="1" transform="matrix(1 0 0 -1 0 236)"/>
            <rect width="10" height="4" y="125" fill="#FFCE8A" rx="1"/>
        </g>
        <g transform="translate(75.75 -90)">
            <rect width="10" height="111" fill="#464BB8" rx="1"/>
            <rect width="10" height="4" y="113" fill="#DE5650" rx="1" transform="matrix(1 0 0 -1 0 230)"/>
        </g>
        <rect width="10" height="21" y="123" fill="#FFCE8A" rx="1" transform="matrix(1 0 0 -1 50.75 133)"/>
        <g transform="translate(325.75 -32)">
            <rect width="10" height="111" fill="#464BB8" rx="1"/>
            <rect width="10" height="29" y="113" fill="#DE5650" rx="1"/>
            <rect width="10" height="91" y="144" fill="#FFCE8A" rx="1"/>
        </g>
    </g>
</svg>
