<svg width="342" height="460" viewBox="0 0 342 460" fill="none" xmlns="http://www.w3.org/2000/svg">
<path d="M1 4V394.914L65.18 459H338C338.796 459 339.559 458.684 340.121 458.121C340.684 457.559 341 456.796 341 456V4C341 3.20435 340.684 2.44129 340.121 1.87868C339.559 1.31607 338.796 1 338 1L4 1C3.20435 1 2.44129 1.31607 1.87868 1.87868C1.31607 2.44129 1 3.20435 1 4H1Z" fill="white" fill-opacity="0.1" stroke="white"/>
<path fill-rule="evenodd" clip-rule="evenodd" d="M0 397L63 460H3C2.20435 460 1.44129 459.684 0.87868 459.121C0.31607 458.559 0 457.796 0 457L0 397Z" fill="white"/>
<path fill-rule="evenodd" clip-rule="evenodd" d="M20 434V440H26V441H20V447H19V440.999L13 441V440L19 439.999V434H20Z" fill="#D11E1E"/>
</svg>
