<?xml version="1.0" encoding="UTF-8"?>
<svg width="365px" height="480px" viewBox="0 0 365 480" version="1.1" xmlns="http://www.w3.org/2000/svg" xmlns:xlink="http://www.w3.org/1999/xlink">
    <!-- Generator: Sketch 53.2 (72643) - https://sketchapp.com -->
    <title>Контент</title>
    <desc>Created with Sketch.</desc>
    <defs>
        <path d="M0,3 L-4.4408921e-16,477 C-2.41183085e-16,478.656854 1.34314575,480 3,480 L362,480 C363.656854,480 365,478.656854 365,477 L365,3 C365,1.34314575 363.656854,-3.04359188e-16 362,0 L3,0 C1.34314575,3.04359188e-16 -2.02906125e-16,1.34314575 0,3 Z" id="path-1"></path>
    </defs>
    <g id="Page-2" stroke="none" stroke-width="1" fill="none" fill-rule="evenodd">
        <g id="1-copy-29" transform="translate(-935.000000, -1085.000000)">
            <g id="Group-12" transform="translate(935.000000, 89.000000)">
                <g id="Контент" transform="translate(0.000000, 996.000000)">
                    <mask id="mask-2" fill="white">
                        <use xlink:href="#path-1"></use>
                    </mask>
                    <use id="Mask" fill="#FBFBFD" xlink:href="#path-1"></use>
                    <g id="Group-15" mask="url(#mask-2)">
                        <g transform="translate(34.000000, -23.000000)">
                            <g id="Group-34" transform="translate(70.000000, 25.000000)">
                                <rect id="Rectangle-Copy-12" fill="#D8D8D8" x="0" y="0" width="76" height="5"></rect>
                                <rect id="Rectangle-Copy-49" fill="#464BB8" x="96" y="0" width="76" height="5"></rect>
                                <rect id="Rectangle-Copy-50" fill="#FFCE8A" x="192" y="0" width="76" height="5"></rect>
                            </g>
                            <g id="Group-35" transform="translate(45.000000, 37.000000)">
                                <rect id="Rectangle-Copy-13" fill="#FFCE8A" x="0" y="0" width="147" height="5"></rect>
                                <rect id="Rectangle-Copy-51" fill="#D8D8D8" x="167" y="0" width="147" height="5"></rect>
                            </g>
                            <g id="Group-36" transform="translate(71.000000, 49.000000)">
                                <rect id="Rectangle-Copy-14" fill="#DE5650" x="0" y="0" width="41" height="5"></rect>
                                <rect id="Rectangle-Copy-41" fill="#464BB8" x="203" y="0" width="41" height="5"></rect>
                                <rect id="Rectangle-Copy-40" fill="#D8D8D8" x="61" y="0" width="122" height="5"></rect>
                            </g>
                            <g id="Group-37" transform="translate(112.000000, 61.000000)">
                                <rect id="Rectangle-Copy-15" fill="#FFCE8A" x="89" y="0" width="151" height="5"></rect>
                                <rect id="Rectangle-Copy-39" fill="#464BB8" x="0" y="0" width="69" height="5"></rect>
                            </g>
                            <g id="Group-38" transform="translate(134.000000, 74.000000)">
                                <rect id="Rectangle-Copy-16" fill="#FFCE8A" x="0" y="0" width="80" height="5"></rect>
                                <rect id="Rectangle-Copy-52" fill="#DE5650" x="100" y="0" width="119" height="5"></rect>
                            </g>
                            <g id="Group-39" transform="translate(178.000000, 86.000000)">
                                <rect id="Rectangle-Copy-17" fill="#D8D8D8" x="0" y="0" width="82" height="5"></rect>
                                <rect id="Rectangle-Copy-36" fill="#DE5650" x="102" y="0" width="112" height="5"></rect>
                            </g>
                            <g id="Group-40" transform="translate(210.000000, 98.000000)">
                                <rect id="Rectangle-Copy-37" fill="#464BB8" x="0" y="0" width="29" height="5"></rect>
                                <rect id="Rectangle-Copy-38" fill="#D8D8D8" x="49" y="0" width="49" height="5"></rect>
                            </g>
                            <g id="Group-41" transform="translate(190.000000, 110.000000)">
                                <rect id="Rectangle-Copy-19" fill="#D8D8D8" x="0" y="0" width="69" height="5"></rect>
                                <rect id="Rectangle-Copy-44" fill="#464BB8" x="89" y="0" width="69" height="5"></rect>
                            </g>
                            <g id="Group-42" transform="translate(153.000000, 123.000000)">
                                <rect id="Rectangle-Copy-20" fill="#D8D8D8" x="105" y="0" width="85" height="5"></rect>
                                <rect id="Rectangle-Copy-42" fill="#DE5650" x="0" y="0" width="85" height="5"></rect>
                            </g>
                            <g id="Rectangle-Copy-53" transform="translate(236.000000, 135.000000)">
                                <rect id="Rectangle-Copy-21" fill="#464BB8" x="0" y="0" width="146" height="5"></rect>
                            </g>
                            <g id="Rectangle-Copy-55" transform="translate(280.000000, 147.000000)">
                                <rect id="Rectangle-Copy-22" fill="#D8D8D8" x="0" y="0" width="105" height="5"></rect>
                            </g>
                            <g id="Rectangle-Copy-54" transform="translate(247.000000, 160.000000)">
                                <rect id="Rectangle-Copy-43" fill="#FFCE8A" x="0" y="0" width="105" height="5"></rect>
                            </g>
                            <g id="Group-43" transform="translate(240.000000, 172.000000)">
                                <rect id="Rectangle-Copy-23" fill="#D8D8D8" x="66" y="0" width="78" height="5"></rect>
                                <rect id="Rectangle-Copy-45" fill="#DE5650" x="0" y="0" width="46" height="5"></rect>
                            </g>
                            <g id="Rectangle-Copy-56" transform="translate(248.000000, 184.000000)">
                                <rect id="Rectangle-Copy-24" fill="#D8D8D8" x="0" y="0" width="133" height="5"></rect>
                            </g>
                            <g id="Group-44" transform="translate(236.000000, 196.000000)">
                                <rect id="Rectangle-Copy-25" fill="#464BB8" x="55" y="0" width="78" height="5"></rect>
                                <rect id="Rectangle-Copy-46" fill="#FFCE8A" x="0" y="0" width="35" height="5"></rect>
                            </g>
                            <g id="Rectangle-Copy-57" transform="translate(254.000000, 209.000000)">
                                <rect id="Rectangle-Copy-26" fill="#D8D8D8" x="0" y="0" width="98" height="5"></rect>
                            </g>
                            <g id="Group-45" transform="translate(254.000000, 233.000000)">
                                <rect id="Rectangle-Copy-28" fill="#DE5650" x="0" y="0" width="98" height="5"></rect>
                            </g>
                            <g id="Group-46" transform="translate(281.000000, 245.000000)">
                                <rect id="Rectangle-Copy-29" fill="#FFCE8A" x="0" y="0" width="71" height="5"></rect>
                            </g>
                            <g id="Rectangle-Copy-59" transform="translate(265.000000, 258.000000)">
                                <rect id="Rectangle-Copy-30" fill="#D8D8D8" x="0" y="0" width="118" height="5"></rect>
                            </g>
                            <g id="Rectangle-Copy-60" transform="translate(281.000000, 270.000000)">
                                <rect id="Rectangle-Copy-31" fill="#464BB8" x="0" y="0" width="62" height="5"></rect>
                            </g>
                        </g>
                    </g>
                </g>
            </g>
        </g>
    </g>
</svg>