<svg xmlns="http://www.w3.org/2000/svg" width="324" height="399" viewBox="0 0 324 399">
    <g fill="none" fill-rule="evenodd" transform="translate(-2 -133)">
        <path fill="#DE5650" d="M0 130.738c33.084 32.903 53.493 28.905 70.283 28.905H260.38c30.079 0 34.83 15.022 34.83 34.809v267.333c0 27.763.688 53.004 29.71 70.215.145-26.074.145-159.828 0-401.262-191.207.096-299.513.096-324.919 0z"/>
        <path fill="#FFCE8A" d="M73.827 130.738c30.332 28.157 51.687 36.327 77.438 36.327h104.699c23.921 0 29.889 10.027 29.889 29.871v214.27c0 9.969 6.933 64.757 39.175 69.794-.368-152.33-.404-269.084-.11-350.262-114.631-.58-198.328-.58-251.091 0z"/>
        <path fill="#464BB8" d="M244.66 104.92c-76.696 70.276-80.251 60.363-113.393 60.363C131.5 205.5 252.63 201.986 237 236.5c-15.63 34.514 64.5-32.486 64.5 124.5 0 45.676 24.718 43.522 24.718 68-1.74-107.47-1.74-206.892 0-298.262-3.242-64.063-30.428-72.67-81.558-25.819z"/>
        <circle cx="325" cy="131" r="131" fill="#DE5650"/>
        <circle cx="337" cy="196" r="64" fill="#FFF"/>
        <circle cx="337" cy="219" r="38" fill="#FFCE8A"/>
    </g>
</svg>
