<?xml version="1.0" encoding="UTF-8"?>
<svg width="340px" height="456px" viewBox="0 0 340 456" version="1.1" xmlns="http://www.w3.org/2000/svg" xmlns:xlink="http://www.w3.org/1999/xlink">
    <!-- Generator: Sketch 53.2 (72643) - https://sketchapp.com -->
    <title>Group 6</title>
    <desc>Created with Sketch.</desc>
    <defs>
        <path d="M1.45519152e-11,3 L1.45519152e-11,453 C1.45521181e-11,454.656854 1.34314575,456 3,456 L337,456 C338.656854,456 340,454.656854 340,453 L340,3 C340,1.34314575 338.656854,-3.04359188e-16 337,0 L3,0 C1.34314575,3.04359188e-16 1.45517123e-11,1.34314575 1.45519152e-11,3 Z" id="path-1"></path>
    </defs>
    <g id="Page-2" stroke="none" stroke-width="1" fill="none" fill-rule="evenodd">
        <g id="1-copy-29" transform="translate(-960.000000, -89.000000)">
            <g id="Group-12" transform="translate(815.000000, 89.000000)">
                <g id="Group-11">
                    <g id="Group-6" transform="translate(145.000000, 0.000000)">
                        <mask id="mask-2" fill="white">
                            <use xlink:href="#path-1"></use>
                        </mask>
                        <use id="Mask" fill="#FBFBFD" xlink:href="#path-1"></use>
                        <g mask="url(#mask-2)">
                            <g transform="translate(16.000000, -133.000000)">
                                <path d="M0,130.738007 C33.0842148,163.641153 53.493271,159.64254 70.2831619,159.64254 C87.0730528,159.64254 230.301059,159.64254 260.379341,159.64254 C290.457623,159.64254 295.209659,174.665258 295.209659,194.45192 C295.209659,214.238582 295.209659,434.021485 295.209659,461.784615 C295.209659,489.547745 295.89735,514.788668 324.918567,532 C325.06421,505.925748 325.06421,372.17175 324.918567,130.738007 C133.712219,130.833797 25.4060302,130.833797 0,130.738007 Z" id="Path" fill="#DE5650"></path>
                                <path d="M72.8270371,130.738007 C103.158528,158.894765 124.513526,167.065247 150.264743,167.065247 C176.015959,167.065247 231.042609,167.065247 254.963828,167.065247 C278.885047,167.065247 284.852528,177.091766 284.852528,196.935981 C284.852528,216.780195 284.852528,401.236519 284.852528,411.205744 C284.852528,421.174968 291.785649,475.962617 324.0278,481 C323.660157,328.670292 323.623746,211.916294 323.918567,130.738007 C209.286876,130.158752 125.589699,130.158752 72.8270371,130.738007 Z" id="Path-19" fill="#FFCE8A"></path>
                                <path d="M244.392476,104.919474 C167.697269,175.19582 164.141694,165.283005 131,165.283005 C131.232899,205.5 252.362882,201.986064 236.732899,236.5 C221.102916,271.013936 301.232899,204.014007 301.232899,361 C301.232899,406.675557 325.95114,404.522399 325.95114,429 C324.211383,321.52914 324.211383,222.108476 325.95114,130.738007 C322.708835,66.6747544 295.522614,58.0685766 244.392476,104.919474 Z" id="Path-20" fill="#464BB8"></path>
                                <circle id="Oval" fill="#DE5650" cx="323" cy="131" r="131"></circle>
                                <circle id="Oval" fill="#FFFFFF" cx="335" cy="196" r="64"></circle>
                                <circle id="Oval" fill="#FFCE8A" cx="335" cy="219" r="38"></circle>
                            </g>
                        </g>
                    </g>
                </g>
            </g>
        </g>
    </g>
</svg>