<svg id="Layer_1" enable-background="new 0 0 512.061 512.061" height="512" viewBox="0 0 512.061 512.061" width="512" xmlns="http://www.w3.org/2000/svg"><path d="m431.94 208.847c27.613-43.768 37.752-85.846 29.319-121.686-9.598-40.797-43.272-74.62-83.797-84.164-37.286-8.779-75.61 1.992-102.519 28.813-5.173 5.156-11.906 8.014-18.867 8.046-7.053-.032-13.786-2.89-18.959-8.045-26.907-26.821-65.233-37.594-102.519-28.812-4.065.958-8.163 2.192-12.178 3.668-5.184 1.906-7.841 7.653-5.935 12.837s7.652 7.839 12.837 5.935c3.26-1.199 6.578-2.199 9.86-2.972 14.443-3.401 29.07-3.216 42.802.24-20.725 12.209-36.738 41.861-41.565 77.944-5.979 44.7 6.458 90.68 20.313 125.367h-43.808c-7.357-9.251-14.046-18.579-19.889-27.841-24.685-39.13-33.94-75.934-26.763-106.438.771-3.287 1.77-6.611 2.963-9.881 1.896-5.188-.774-10.929-5.962-12.824-5.185-1.896-10.93.773-12.824 5.962-1.466 4.015-2.693 8.108-3.646 12.165-8.433 35.84 1.706 77.918 29.319 121.686 6.978 11.06 14.891 21.948 23.447 32.49l79.925 170.011v70.714c0 16.542 13.458 30 30 30h85.074c16.542 0 30-13.458 30-30v-70.714l79.925-170.011c8.556-10.541 16.469-21.43 23.447-32.49zm-59.062-186.381c33.316 7.846 61.011 35.686 68.912 69.276 7.176 30.501-2.079 67.305-26.766 106.434-5.843 9.262-12.532 18.591-19.889 27.841h-43.809c13.855-34.687 26.293-80.667 20.314-125.367-4.828-36.084-20.84-65.737-41.566-77.945 13.733-3.456 28.36-3.641 42.804-.239zm-106.847 302.72v-79.169h54.466c-1.039 2.094-2.053 4.092-3.029 5.976-16.99 32.779-36.84 59.317-51.437 73.193zm-20 0c-14.597-13.876-34.448-40.414-51.438-73.193-.977-1.884-1.99-3.882-3.029-5.976h54.467zm0 26.827v47.101h-46.188l-52.387-111.435c34.732 31.754 71.807 55.765 98.575 64.334zm-42.537 67.101h105.074v20.001h-105.074zm108.725-20h-46.188v-47.101c26.768-8.569 63.843-32.58 98.576-64.334zm19.429-109.525c-8.444 6.819-16.918 13.098-25.151 18.687 9.921-13.792 19.793-29.842 28.728-47.079 2.331-4.497 4.856-9.598 7.454-15.179h35.378c-14.009 15.305-29.694 30.071-46.409 43.571zm-42.585-243.613c1.941-1.935 3.958-3.761 6.038-5.489 7.085-4.448 14.324-5.203 21.519-2.223 16.517 6.841 30.99 33.585 35.197 65.038 5.857 43.783-8.052 89.693-22.114 122.715h-63.672v-167.297c8.597-1.93 16.552-6.285 23.032-12.744zm-128.819 57.325c4.207-31.452 18.681-58.197 35.197-65.038 7.195-2.98 14.432-2.225 21.516 2.221 2.081 1.729 4.099 3.556 6.04 5.491 6.471 6.45 14.414 10.802 23.032 12.735v167.305h-63.672c-14.061-33.02-27.97-78.929-22.113-122.714zm9.138 142.716c2.598 5.582 5.123 10.682 7.454 15.179 8.934 17.237 18.806 33.287 28.727 47.079-8.233-5.589-16.707-11.867-25.15-18.686-16.715-13.499-32.401-28.266-46.409-43.572zm129.186 246.044h-85.074c-5.514 0-10-4.486-10-10v-22.946h105.074v22.946c0 5.514-4.487 10-10 10z"/><path d="m88.105 50.52c5.522 0 10-4.477 10-10s-4.478-10-10-10h-.008c-5.522 0-9.996 4.477-9.996 10s4.481 10 10.004 10z"/></svg>