<?xml version="1.0" encoding="UTF-8"?>
<svg width="97px" height="92px" viewBox="0 0 97 92" version="1.1" xmlns="http://www.w3.org/2000/svg" xmlns:xlink="http://www.w3.org/1999/xlink">
    <!-- Generator: Sketch 62 (91390) - https://sketch.com -->
    <title>Group 5</title>
    <desc>Created with Sketch.</desc>
    <g id="Page-2" stroke="none" stroke-width="1" fill="none" fill-rule="evenodd">
        <g id="Artboard-Copy-7" transform="translate(-37.000000, -914.000000)">
            <g id="Group-16" transform="translate(-1.000000, 129.000000)">
                <g id="Group-9" transform="translate(0.000000, 336.000000)">
                    <g id="Group-5" transform="translate(42.500000, 451.000000)">
                        <path d="M29.5,85.5 C45.7924001,85.5 59,72.2493506 59,55.9038462 C59,39.5583417 45.7924001,26.3076923 29.5,26.3076923 C13.2075999,26.3076923 0,39.5583417 0,55.9038462 C0,72.2493506 13.2075999,85.5 29.5,85.5 Z" id="Oval" stroke="#777474" stroke-width="7.65" stroke-dasharray="0,3"></path>
                        <path d="M59,85.5 C75.2924001,85.5 88.5,72.2493506 88.5,55.9038462 C88.5,39.5583417 75.2924001,26.3076923 59,26.3076923 C42.7075999,26.3076923 29.5,39.5583417 29.5,55.9038462 C29.5,72.2493506 42.7075999,85.5 59,85.5 Z" id="Oval-Copy" stroke="#FFFFFF" stroke-width="6.15" stroke-linecap="round" stroke-dasharray="0,6"></path>
                        <ellipse id="Oval-Copy-2" stroke="#EF4042" stroke-width="3" cx="44.25" cy="29.5961538" rx="29.5" ry="29.5961538"></ellipse>
                    </g>
                </g>
            </g>
        </g>
    </g>
</svg>