<?xml version="1.0" encoding="utf-8"?>
<!-- Generator: Adobe Illustrator 23.0.1, SVG Export Plug-In . SVG Version: 6.00 Build 0)  -->
<svg version="1.1" id="Слой_1" xmlns="http://www.w3.org/2000/svg" xmlns:xlink="http://www.w3.org/1999/xlink" x="0px" y="0px"
	 viewBox="0 0 70 81" style="enable-background:new 0 0 70 81;" xml:space="preserve">
<style type="text/css">
	.st0{fill:#757373;}
	.st1{fill:#FFFFFF;}
	.st2{fill:#CE4244;}
</style>
<g>
	<path class="st0" d="M25.7,62.4L25.7,62.4v5.1C25.7,62.4,25.7,67.5,25.7,62.4z M24.1,62.4L24.1,62.4l-0.5,5.1
		C24.1,62.4,23.6,67.5,24.1,62.4z M27.4,62.4l0.5,5.1C27.4,62.4,27.9,67.4,27.4,62.4z M22.4,62.1l-1,5
		C22.4,62.1,21.4,67.1,22.4,62.1z M29.1,62.1l1,5C29.1,62.1,30.1,67.1,29.1,62.1z M20.7,61.7l-1.5,4.9
		C20.7,61.7,19.2,66.6,20.7,61.7z M30.8,61.7l1.5,4.9C30.8,61.7,32.3,66.5,30.8,61.7z M19,61.1l-2,4.7C19,61.1,17.1,65.8,19,61.1z
		 M32.4,61.1l2,4.7C32.4,61.1,34.5,65.7,32.4,61.1z M17.5,60.4L15,64.8C17.5,60.4,15,64.8,17.5,60.4z M34,60.3l2.5,4.4
		C34,60.3,36.5,64.7,34,60.3z M13.1,63.6l1.2-1.7L13.1,63.6z M35.5,59.4l2.9,4.2C35.5,59.4,38.4,63.5,35.5,59.4z M14.6,58.4
		l-3.3,3.9C14.6,58.4,11.3,62.3,14.6,58.4z M36.8,58.3l3.3,3.9C36.8,58.3,40.2,62.1,36.8,58.3z M16,59.4L16,59.4l-1.7,2.5
		C16,59.4,14.3,61.9,16,59.4z M9.7,60.7l3.7-3.5L9.7,60.7z M38.1,57.1l3.7,3.5C38.1,57.1,41.8,60.6,38.1,57.1z M12.2,55.9l-4,3.1
		C12.2,55.9,8.2,59,12.2,55.9z M39.2,55.8l4.1,3.1C39.2,55.8,43.3,58.9,39.2,55.8z M11.2,54.5l-4.3,2.7
		C11.2,54.5,6.9,57.2,11.2,54.5z M40.2,54.3l4.3,2.7C40.2,54.3,44.5,57,40.2,54.3z M10.3,52.9l-4.6,2.3
		C10.3,52.9,5.8,55.2,10.3,52.9z M41.1,52.8l4.6,2.2C41.1,52.8,45.6,55,41.1,52.8z M4.9,53.1l4.8-1.8L4.9,53.1z M41.7,51.2l4.8,1.8
		C41.7,51.2,46.5,53,41.7,51.2z M9.1,49.7L4.2,51C9.1,49.7,4.2,51,9.1,49.7z M42.2,49.5l4.9,1.3C42.2,49.5,47.2,50.8,42.2,49.5z
		 M8.8,48l-5,0.8C8.8,48,3.7,48.8,8.8,48z M42.6,47.8l5,0.8C42.6,47.8,47.6,48.6,42.6,47.8z M8.6,46.3L8.6,46.3l-5.1,0.3
		C8.6,46.3,3.5,46.5,8.6,46.3z M42.8,46.1L42.8,46.1l5.1,0.2C42.8,46.1,47.9,46.3,42.8,46.1z M3.5,44.3l5.1,0.2c0,0,0,0,0,0l0,0
		C3.5,44.3,8.6,44.5,3.5,44.3z M47.8,44.1l-5.1,0.3C47.8,44.1,42.8,44.4,47.8,44.1z M3.7,42L3.7,42l5.1,0.7C3.7,42,8.7,42.8,3.7,42z
		 M47.6,41.8l-5,0.8C47.6,41.8,42.6,42.6,47.6,41.8z M4.1,39.8l4.9,1.2C4.1,39.8,9.1,41.1,4.1,39.8z M42.2,40.9l4.9-1.3l0,0
		L42.2,40.9L42.2,40.9z M6.8,38.4l2.8,1l0,0l0,0C6.8,38.4,9.6,39.4,6.8,38.4z M46.5,37.5l-4.8,1.8C46.5,37.5,41.7,39.3,46.5,37.5z
		 M4.8,37.7L4.8,37.7l2,0.7C4.8,37.7,6.8,38.4,4.8,37.7z M5.6,35.6l4.6,2.2C5.6,35.6,10.2,37.8,5.6,35.6z M45.6,35.4L45.6,35.4
		L41,37.7C45.6,35.4,41,37.7,45.6,35.4z M6.7,33.6l4.3,2.7C6.7,33.6,11.1,36.3,6.7,33.6z M44.5,33.4L44.5,33.4l-4.3,2.7
		C44.5,33.4,40.2,36.1,44.5,33.4z M8,31.8l4.1,3.1C8,31.8,12.1,34.8,8,31.8z M43.2,31.6l-4,3.1C43.2,31.6,39.2,34.7,43.2,31.6z
		 M13.2,33.5l-1.9-1.7L13.2,33.5C13.2,33.5,13.2,33.5,13.2,33.5z M41.7,29.9L38,33.4C41.7,29.9,38,33.4,41.7,29.9z M11.1,28.5
		l3.4,3.8C11.1,28.5,14.4,32.3,11.1,28.5z M40.1,28.3l-3.3,3.9C40.1,28.3,36.8,32.2,40.1,28.3z M9.5,30L9.5,30l1.9,1.7
		C9.5,30,11.3,31.8,9.5,30z M12.9,27.1l2.9,4.2C12.9,27.1,15.8,31.2,12.9,27.1z M38.3,26.9l-2.9,4.2C38.3,26.9,35.4,31.1,38.3,26.9z
		 M14.8,25.8l2.5,4.4C14.8,25.8,17.3,30.3,14.8,25.8z M36.4,25.8l-2.5,4.5C36.4,25.8,33.9,30.2,36.4,25.8z M16.8,24.8l2,4.7
		C16.8,24.8,18.8,29.5,16.8,24.8z M34.4,24.8l-2,4.7C34.4,24.8,32.4,29.4,34.4,24.8z M18.9,24l1.5,4.9C18.9,24,20.4,28.9,18.9,24z
		 M32.2,24l-1.5,4.9C32.2,24,30.7,28.8,32.2,24z M22.1,28.4l-1.1-5L22.1,28.4L22.1,28.4z M29,28.4l0.5-2.5L29,28.4L29,28.4z
		 M23.3,23.1l0.5,5.1C23.3,23.1,23.8,28.2,23.3,23.1z M27.3,28.2l0.5-5.1L27.3,28.2L27.3,28.2z M25.6,28.1l0-5.1L25.6,28.1
		L25.6,28.1z M30,23.4L30,23.4l-0.5,2.5C30,23.4,29.5,25.9,30,23.4z"/>
	<path class="st1" d="M45.3,67c-12,0-21.7-9.8-21.7-21.8c0-12,9.7-21.8,21.7-21.8S67,33.3,67,45.3C67,57.3,57.3,67,45.3,67z
		 M45.3,27.6c-9.7,0-17.6,7.9-17.6,17.7C27.7,55,35.6,63,45.3,63S63,55,63,45.3C63,35.5,55,27.6,45.3,27.6z"/>
	<path class="st2" d="M35.5,48.5c-11.4,0-20.7-9.3-20.7-20.7C14.8,16.3,24.1,7,35.5,7s20.7,9.3,20.7,20.7
		C56.2,39.2,46.9,48.5,35.5,48.5z M35.5,9c-10.3,0-18.7,8.4-18.7,18.7s8.4,18.7,18.7,18.7s18.7-8.4,18.7-18.7S45.8,9,35.5,9z"/>
</g>
</svg>
