<?xml version="1.0" encoding="UTF-8"?>
<svg width="71px" height="55px" viewBox="0 0 71 55" version="1.1" xmlns="http://www.w3.org/2000/svg" xmlns:xlink="http://www.w3.org/1999/xlink">
    <!-- Generator: Sketch 62 (91390) - https://sketch.com -->
    <title>Group 2</title>
    <desc>Created with Sketch.</desc>
    <g id="Page-2" stroke="none" stroke-width="1" fill="none" fill-rule="evenodd">
        <g id="1-copy-32" transform="translate(0.000000, -513.000000)" fill="#FFFFFF">
            <g id="Group-2" transform="translate(-3.000000, 514.000000)">
                <path d="M0.211380142,0 L48.7654751,0 C51.5619393,0 54.2428747,1.11552847 56.2139106,3.09926964 L69.6425593,16.6144793 C71.5971175,18.5816366 72.6941239,21.2421238 72.6941239,24.0152097 L72.6941239,50 C72.6941239,51.6568542 71.3509781,53 69.6941239,53 L-1.8189894e-12,53 L-1.8189894e-12,53" id="Path" stroke="#FFFFFF" fill-opacity="0.1"></path>
                <g id="down-arrow" transform="translate(34.194124, 26.500000) rotate(-270.000000) translate(-34.194124, -26.500000) translate(27.694124, 19.000000)" fill-rule="nonzero">
                    <path d="M12.972317,8.30190058 C12.9240312,8.18526316 12.8113549,8.10915205 12.686317,8.10915205 L9.29456473,8.10915205 L9.29456473,0.311900585 C9.29456473,0.139736842 9.15588839,0 8.98503125,0 L4.03264062,0 C3.86178348,0 3.72310714,0.139736842 3.72310714,0.311900585 L3.72310714,8.10918129 L0.318354911,8.10918129 C0.193316964,8.10918129 0.080640625,8.1852924 0.0323549107,8.30131579 C-0.0153214286,8.41795322 0.0106785714,8.55207602 0.0992120536,8.64128655 L6.27421205,14.8840936 C6.33239286,14.9427193 6.41103125,14.9757895 6.49335491,14.9757895 C6.57567857,14.9757895 6.65431696,14.9427193 6.71249777,14.8847076 L12.9054598,8.64190058 C12.9939933,8.55266082 13.0206027,8.41856725 12.972317,8.30190058 Z" id="Path"></path>
                </g>
            </g>
        </g>
    </g>
</svg>