<?xml version="1.0" encoding="UTF-8"?>
<svg width="77px" height="90px" viewBox="0 0 77 90" version="1.1" xmlns="http://www.w3.org/2000/svg" xmlns:xlink="http://www.w3.org/1999/xlink">
    <!-- Generator: Sketch 62 (91390) - https://sketch.com -->
    <title>Group 4</title>
    <desc>Created with Sketch.</desc>
    <g id="Page-2" stroke="none" stroke-width="1" fill="none" fill-rule="evenodd">
        <g id="Artboard-Copy-7" transform="translate(-41.000000, -565.000000)">
            <g id="Group-16" transform="translate(-1.000000, 129.000000)">
                <g id="Group-9" transform="translate(0.000000, 336.000000)">
                    <g id="Group-4" transform="translate(42.500000, 100.000000)">
                        <path d="M45,0 L45,9 L45,9 C25.117749,9 9,25.117749 9,45 C9,64.882251 25.117749,81 45,81 L45,90 L45,90 C20.1471863,90 0,69.8528137 0,45 C0,20.1471863 20.1471863,0 45,0 Z" id="Combined-Shape" fill="#FFFFFF"></path>
                        <path d="M72,45 C72,30.0883118 59.9116882,18 45,18 C30.0883118,18 18,30.0883118 18,45 C18,59.9116882 30.0883118,72 45,72 L45,72" id="Path" stroke="#EF4042" stroke-width="9" stroke-dasharray="0.9000000357627869,4.5"></path>
                        <path d="M45,27 C35.0588745,27 27,35.0588745 27,45 C27,54.9411255 35.0588745,63 45,63 L45,63" id="Path" stroke="#FFFFFF" stroke-width="0.9" stroke-dasharray="6.299999713897705,4.5"></path>
                    </g>
                </g>
            </g>
        </g>
    </g>
</svg>