<?xml version="1.0" encoding="utf-8"?>
<!-- Generator: Adobe Illustrator 23.0.1, SVG Export Plug-In . SVG Version: 6.00 Build 0)  -->
<svg version="1.1" id="Слой_1" xmlns="http://www.w3.org/2000/svg" xmlns:xlink="http://www.w3.org/1999/xlink" x="0px" y="0px"
	 viewBox="0 0 70 81" style="enable-background:new 0 0 70 81;" xml:space="preserve">
<style type="text/css">
	.st0{clip-path:url(#SVGID_2_);}
	.st1{clip-path:url(#SVGID_4_);fill:#FFFFFF;}
	.st2{clip-path:url(#SVGID_6_);}
	.st3{clip-path:url(#SVGID_8_);fill:#757373;}
	.st4{clip-path:url(#SVGID_10_);}
	.st5{clip-path:url(#SVGID_12_);fill:#FFFFFF;}
	.st6{clip-path:url(#SVGID_14_);}
	.st7{clip-path:url(#SVGID_16_);fill:#FFFFFF;}
	.st8{fill:#FFFFFF;}
	.st9{fill:#D11E1E;}
</style>
<g>
	<defs>
		<path id="SVGID_1_" d="M42.1,42.5c0,0-0.1,0.1-0.1,0.2c-1.8,2-2.2,5.3-2.2,6.8H29.4c0-1.6-0.4-5-2.3-7c-2.5-2.2-3.9-5.4-3.9-8.7
			c0-6.4,5.1-11.6,11.4-11.6c6.3,0,11.4,5.2,11.4,11.6C46,37.2,44.6,40.4,42.1,42.5z M34.6,20.6c-7.2,0-13,5.9-13,13.2
			c0,3.8,1.6,7.5,4.4,9.9c2.1,2.1,1.9,6.6,1.8,6.6c0,0.2,0,0.4,0.2,0.6c0.1,0.1,0.4,0.2,0.6,0.2h12c0.2,0,0.4-0.1,0.6-0.2
			s0.2-0.4,0.2-0.6c0,0-0.2-4.5,1.8-6.6c0,0,0.1-0.1,0.1-0.1c2.7-2.5,4.3-6.1,4.3-9.8C47.6,26.6,41.7,20.6,34.6,20.6z"/>
	</defs>
	<clipPath id="SVGID_2_">
		<use xlink:href="#SVGID_1_"  style="overflow:visible;"/>
	</clipPath>
	<g class="st0">
		<defs>
			<rect id="SVGID_3_" x="-754" y="-520" width="1920" height="1080"/>
		</defs>
		<clipPath id="SVGID_4_">
			<use xlink:href="#SVGID_3_"  style="overflow:visible;"/>
		</clipPath>
		<rect x="16.5" y="15.6" class="st1" width="36.1" height="40.6"/>
	</g>
</g>
<g>
	<defs>
		<path id="SVGID_5_" d="M34.5,24c-0.4,0-0.8,0.4-0.8,0.8c0,0.4,0.4,0.8,0.8,0.8c4.7,0,8.5,3.9,8.5,8.6c0,0.4,0.4,0.8,0.8,0.8
			c0.4,0,0.8-0.4,0.8-0.8C44.7,28.6,40.1,24,34.5,24z"/>
	</defs>
	<clipPath id="SVGID_6_">
		<use xlink:href="#SVGID_5_"  style="overflow:visible;"/>
	</clipPath>
	<g class="st2">
		<defs>
			<rect id="SVGID_7_" x="-754" y="-520" width="1920" height="1080"/>
		</defs>
		<clipPath id="SVGID_8_">
			<use xlink:href="#SVGID_7_"  style="overflow:visible;"/>
		</clipPath>
		<rect x="28.7" y="19" class="st3" width="20.9" height="21.1"/>
	</g>
</g>
<g>
	<defs>
		<path id="SVGID_9_" d="M39.7,54.5H29.3c-0.2,0-0.4-0.1-0.4-0.4s0.1-0.4,0.4-0.4h10.4c0.2,0,0.4,0.1,0.4,0.4S39.9,54.5,39.7,54.5z
			 M39.7,52.1H29.3c-1.1,0-2,0.9-2,2c0,1.1,0.9,2,2,2h10.4c1.1,0,2-0.9,2-2C41.7,53,40.8,52.1,39.7,52.1z"/>
	</defs>
	<clipPath id="SVGID_10_">
		<use xlink:href="#SVGID_9_"  style="overflow:visible;"/>
	</clipPath>
	<g class="st4">
		<defs>
			<rect id="SVGID_11_" x="-754" y="-520" width="1920" height="1080"/>
		</defs>
		<clipPath id="SVGID_12_">
			<use xlink:href="#SVGID_11_"  style="overflow:visible;"/>
		</clipPath>
		<rect x="22.3" y="47.1" class="st5" width="24.4" height="14"/>
	</g>
</g>
<g>
	<defs>
		<path id="SVGID_13_" d="M38.2,59.3h-7.3c-0.2,0-0.4-0.1-0.4-0.4s0.1-0.4,0.4-0.4h7.3c0.2,0,0.4,0.1,0.4,0.4S38.4,59.3,38.2,59.3z
			 M38.2,56.9h-7.3c-1.1,0-2,0.9-2,2c0,1.1,0.9,2,2,2h7.3c1.1,0,2-0.9,2-2C40.1,57.8,39.3,56.9,38.2,56.9z"/>
	</defs>
	<clipPath id="SVGID_14_">
		<use xlink:href="#SVGID_13_"  style="overflow:visible;"/>
	</clipPath>
	<g class="st6">
		<defs>
			<rect id="SVGID_15_" x="-754" y="-520" width="1920" height="1080"/>
		</defs>
		<clipPath id="SVGID_16_">
			<use xlink:href="#SVGID_15_"  style="overflow:visible;"/>
		</clipPath>
		<rect x="23.9" y="51.9" class="st7" width="21.3" height="14"/>
	</g>
</g>
<g>
	<path class="st8" d="M52.3,44.6l8.4,4.5C52.3,44.6,60.7,49.1,52.3,44.6z M53,43.2l8.7,3.9C53,43.2,61.7,47.1,53,43.2z M6.7,45.5
		l8.9-3.4L6.7,45.5z M53.6,41.8l8.9,3.2C53.6,41.8,62.5,45,53.6,41.8z M15.1,40.7L6,43.4C15.1,40.7,6,43.4,15.1,40.7z M58.6,41.6
		l4.6,1.3C58.6,41.6,63.2,42.8,58.6,41.6z M54,40.3L54,40.3l4.6,1.3C54,40.3,58.6,41.6,54,40.3z M5.4,41.2l4.7-1L5.4,41.2
		C5.4,41.2,5.4,41.2,5.4,41.2z M54.4,38.8l9.3,1.8C54.4,38.8,63.7,40.6,54.4,38.8z M14.7,39.2L14.7,39.2l-4.6,1
		C14.7,39.2,10.1,40.2,14.7,39.2z M14.4,37.7L5,38.9C14.4,37.7,5,38.9,14.4,37.7z M64,38.4l-9.4-1.1L64,38.4
		C64,38.4,64,38.4,64,38.4z M14.3,36.1L14.3,36.1l-9.5,0.6C14.3,36.1,4.8,36.7,14.3,36.1z M54.7,35.7l9.5,0.4
		C54.7,35.7,64.2,36.2,54.7,35.7z M4.8,34.5l9.5,0.1C4.8,34.5,14.2,34.6,4.8,34.5z M64.2,33.9l-9.5,0.3
		C64.2,33.9,54.8,34.2,64.2,33.9z M4.8,32.2l9.5,0.8C4.8,32.2,14.3,33,4.8,32.2z M64.1,31.7l-9.4,1C64.1,31.7,54.6,32.6,64.1,31.7z
		 M5.1,30L5.1,30l9.4,1.5C5.1,30,14.5,31.5,5.1,30z M54.4,31.1l9.4-1.7L54.4,31.1L54.4,31.1z M5.6,27.8L5.6,27.8l9.2,2.2
		C5.6,27.8,14.8,30,5.6,27.8z M63.3,27.2L63.3,27.2l-9.2,2.4C63.3,27.2,54.1,29.6,63.3,27.2z M6.2,25.6l9,2.9
		C6.2,25.6,15.2,28.5,6.2,25.6z M53.7,28.1l4.5-1.5L53.7,28.1L53.7,28.1z M6.9,23.5l8.8,3.6C6.9,23.5,15.8,27,6.9,23.5z M61.8,23
		L61.8,23l-8.7,3.7C61.8,23,53.1,26.7,61.8,23z M62.6,25.1L62.6,25.1l-4.5,1.5C62.6,25.1,58.1,26.6,62.6,25.1z M7.9,21.4l8.5,4.2
		C7.9,21.4,16.4,25.6,7.9,21.4z M60.9,20.9l-8.4,4.4C60.9,20.9,52.4,25.3,60.9,20.9z M8.9,19.4l8.2,4.9C8.9,19.4,17.1,24.3,8.9,19.4
		z M59.8,18.9L59.8,18.9l-8.1,5C59.8,18.9,51.7,24,59.8,18.9z M10.2,17.5l7.8,5.4C10.2,17.5,17.9,23,10.2,17.5z M58.5,17.1l-7.7,5.6
		C58.5,17.1,50.8,22.7,58.5,17.1z M11.5,15.7l7.4,6l0,0l0,0C11.5,15.7,18.9,21.8,11.5,15.7z M57.1,15.3l-7.2,6.1
		C57.1,15.3,49.9,21.5,57.1,15.3z M13,14l6.9,6.5C13,14,19.9,20.6,13,14z M55.6,13.6L55.6,13.6l-6.8,6.7
		C55.6,13.6,48.8,20.3,55.6,13.6z M14.6,12.5l6.4,7C14.6,12.5,21,19.5,14.6,12.5z M53.9,12.1l-6.2,7.2
		C53.9,12.1,47.7,19.3,53.9,12.1z M22.2,18.5l-3.3-4.2L22.2,18.5L22.2,18.5z M52.2,10.7l-5.7,7.6C52.2,10.7,46.5,18.3,52.2,10.7z
		 M18.2,9.7L18.2,9.7l5.2,7.9C18.2,9.7,23.4,17.6,18.2,9.7z M45.2,17.4l5.1-8L45.2,17.4C45.2,17.4,45.2,17.4,45.2,17.4z M24.8,16.8
		l-4.6-8.3L24.8,16.8L24.8,16.8z M48.4,8.3l-4.5,8.4C48.4,8.3,43.9,16.7,48.4,8.3z M22.2,7.5l4,8.6c0,0,0,0,0,0l0,0
		C22.2,7.5,26.1,16.1,22.2,7.5z M46.3,7.3L42.5,16C46.3,7.3,42.5,16,46.3,7.3z M24.3,6.6l3.3,8.9C24.3,6.6,27.5,15.6,24.3,6.6z
		 M44.2,6.5l-3.1,9C44.2,6.5,41.1,15.4,44.2,6.5z M26.4,5.9l2.6,9.1C26.4,5.9,29,15.1,26.4,5.9z M42.1,5.8L39.6,15
		C42.1,5.8,39.6,15,42.1,5.8z M28.6,5.4l1.9,9.3l0,0l0,0C28.6,5.4,30.5,14.7,28.6,5.4z M39.8,5.3l-1.7,9.4
		C39.8,5.3,38.1,14.6,39.8,5.3z M30.8,5l1.2,9.4C30.8,5,32,14.5,30.8,5z M36.6,14.4l1-9.4L36.6,14.4L36.6,14.4z M33.1,4.8L33.1,4.8
		l0.4,9.5C33.1,4.8,33.5,14.3,33.1,4.8z M35.3,4.8l-0.3,9.5C35.3,4.8,35.1,14.3,35.3,4.8z M16.4,11L16.4,11l2.5,3.3
		C16.4,11,18.9,14.3,16.4,11z"/>
	<path class="st9" d="M64.4,51l-1.7-0.9c2.5-4.7,3.9-10.1,3.9-15.5C66.6,16.6,52.2,2,34.5,2S2.4,16.6,2.4,34.5c0,4.8,1,9.5,3,13.8
		l-1.7,0.8c-2.1-4.6-3.2-9.5-3.2-14.6c0-19,15.2-34.5,34-34.5s34,15.5,34,34.5C68.5,40.3,67.1,46,64.4,51z"/>
</g>
</svg>
