<svg xmlns="http://www.w3.org/2000/svg" width="69" height="61" viewBox="0 0 69 61">
    <g fill="none" fill-rule="evenodd">
        <path fill="#FFF" fill-rule="nonzero" d="M34.562 20.641c-7.18 0-13.044 5.939-13.044 13.208 0 3.8 1.642 7.458 4.41 9.929 2.065 2.09 1.877 6.556 1.83 6.604 0 .237.047.427.235.617a.86.86 0 0 0 .563.238h11.965a.772.772 0 0 0 .563-.238.91.91 0 0 0 .235-.617c0-.048-.235-4.514 1.83-6.604l.14-.143c2.722-2.518 4.317-6.08 4.317-9.786 0-7.27-5.865-13.208-13.044-13.208zm7.508 21.902c-.047.047-.141.142-.141.19-1.83 1.995-2.159 5.273-2.205 6.841h-10.37c-.047-1.568-.376-4.988-2.346-7.031a11.64 11.64 0 0 1-3.942-8.742c0-6.414 5.115-11.592 11.45-11.592 6.334 0 11.448 5.178 11.448 11.592 0 3.373-1.407 6.556-3.894 8.742z"/>
        <path fill="#777474" fill-rule="nonzero" d="M34.515 24.014c-.422 0-.798.38-.798.808 0 .427.376.807.798.807 4.74 0 8.54 3.896 8.54 8.647 0 .428.375.808.798.808.422 0 .797-.38.797-.808.047-5.653-4.504-10.262-10.135-10.262z"/>
        <path fill="#FFF" fill-rule="nonzero" d="M39.724 52.14H29.307c-1.08 0-1.971.902-1.971 1.995s.892 1.995 1.97 1.995h10.37c1.127-.047 2.018-.902 2.018-1.995s-.891-1.995-1.97-1.995zm0 2.328H29.307a.372.372 0 0 1-.376-.38c0-.238.141-.38.376-.38h10.37c.187 0 .375.142.375.38 0 .237-.14.38-.328.38zM38.175 56.938h-7.32c-1.079 0-1.97.903-1.97 1.995 0 1.093.891 1.996 1.97 1.996h7.32c1.08 0 1.97-.903 1.97-1.996 0-1.14-.89-1.995-1.97-1.995zm0 2.328h-7.32a.372.372 0 0 1-.375-.38c0-.238.14-.38.375-.38h7.32c.188 0 .375.142.375.38 0 .237-.187.38-.375.38z"/>
        <path stroke="#FFF" stroke-dasharray="0,1.9" stroke-width="9.5" d="M56.485 46.846a25.31 25.31 0 0 0 3.022-12.036C59.507 20.87 48.311 9.57 34.5 9.57c-13.811 0-25.007 11.3-25.007 25.239 0 3.818.84 7.438 2.344 10.683"/>
        <path stroke="#BD3738" stroke-width="1.9" d="M63.537 50.524a33.785 33.785 0 0 0 3.991-15.992C67.528 16.012 52.741 1 34.5 1S1.472 16.013 1.472 34.532c0 5.073 1.11 9.883 3.096 14.194"/>
    </g>
</svg>
