<?xml version="1.0" encoding="utf-8"?>
<!-- Generator: Adobe Illustrator 23.0.1, SVG Export Plug-In . SVG Version: 6.00 Build 0)  -->
<svg version="1.1" id="Слой_1" xmlns="http://www.w3.org/2000/svg" xmlns:xlink="http://www.w3.org/1999/xlink" x="0px" y="0px"
	 viewBox="0 0 70 81" style="enable-background:new 0 0 70 81;" xml:space="preserve">
<style type="text/css">
	.st0{clip-path:url(#SVGID_2_);}
	.st1{fill:#CE4244;}
	.st2{fill:#FFFFFF;}
</style>
<g>
	<defs>
		<path id="SVGID_1_" d="M39,10v6c-13.3,0-24,10.7-24,24s10.7,24,24,24v6C22.4,70,9,56.6,9,40S22.4,10,39,10z"/>
	</defs>
	<use xlink:href="#SVGID_1_"  style="overflow:visible;fill-rule:evenodd;clip-rule:evenodd;fill:#FFFFFF;"/>
	<clipPath id="SVGID_2_">
		<use xlink:href="#SVGID_1_"  style="overflow:visible;"/>
	</clipPath>
	<g class="st0">
		<defs>
			<rect id="SVGID_3_" x="-746" y="-54" width="1920" height="1080"/>
		</defs>
		<clipPath id="SVGID_4_">
			<use xlink:href="#SVGID_3_"  style="overflow:visible;"/>
		</clipPath>
	</g>
</g>
<g>
	<path class="st1" d="M39,61c-0.3,0-0.7,0-1,0l0.3-6c0.2,0,0.5,0,0.7,0L39,61z M34.5,60.5c-0.4-0.1-0.8-0.2-1.1-0.3l1.6-5.8
		c0.3,0.1,0.5,0.1,0.8,0.2L34.5,60.5z M30.1,59c-0.4-0.2-0.7-0.3-1-0.5l2.8-5.3c0.2,0.1,0.5,0.3,0.7,0.4L30.1,59z M26.2,56.6
		c-0.3-0.2-0.6-0.5-0.9-0.7l3.9-4.5c0.2,0.2,0.4,0.4,0.6,0.5L26.2,56.6z M22.8,53.4c-0.2-0.3-0.5-0.6-0.7-0.9l4.8-3.6
		c0.2,0.2,0.3,0.4,0.5,0.7L22.8,53.4z M20.3,49.5c-0.2-0.3-0.3-0.7-0.5-1.1l5.5-2.4c0.1,0.3,0.2,0.5,0.4,0.8L20.3,49.5z M18.6,45.1
		c-0.1-0.4-0.2-0.8-0.3-1.1l5.9-1.1c0.1,0.3,0.1,0.5,0.2,0.8L18.6,45.1z M18,40.5c0-0.2,0-0.3,0-0.5c0-0.2,0-0.4,0-0.7l6,0.2
		c0,0.2,0,0.3,0,0.5l0,0.3L18,40.5z M60,40h-6c0-0.3,0-0.6,0-0.8l6-0.3C60,39.2,60,39.6,60,40z M24.3,37l-5.9-1.2
		c0.1-0.4,0.2-0.8,0.3-1.1l5.8,1.5C24.4,36.5,24.3,36.8,24.3,37z M53.6,36.7c-0.1-0.3-0.1-0.5-0.2-0.8l5.8-1.6
		c0.1,0.4,0.2,0.8,0.3,1.1L53.6,36.7z M25.3,33.9l-5.5-2.4c0.2-0.4,0.3-0.7,0.5-1.1l5.3,2.8C25.5,33.4,25.4,33.6,25.3,33.9z
		 M52.5,33.6c-0.1-0.3-0.2-0.5-0.4-0.7l5.3-2.9c0.2,0.3,0.4,0.7,0.5,1L52.5,33.6z M27,31l-4.8-3.6c0.2-0.3,0.5-0.6,0.7-0.9l4.6,3.9
		C27.3,30.6,27.2,30.8,27,31z M50.8,30.7c-0.2-0.2-0.3-0.4-0.5-0.6l4.5-4c0.3,0.3,0.5,0.6,0.7,0.9L50.8,30.7z M29.3,28.6L25.4,24
		c0.3-0.3,0.6-0.5,0.9-0.7l3.6,4.8C29.7,28.2,29.5,28.4,29.3,28.6z M48.5,28.4c-0.2-0.2-0.4-0.3-0.7-0.5l3.5-4.9
		c0.3,0.2,0.6,0.5,0.9,0.7L48.5,28.4z M32,26.7l-2.8-5.3c0.3-0.2,0.7-0.4,1-0.5l2.5,5.5C32.5,26.5,32.3,26.6,32,26.7z M45.7,26.6
		c-0.2-0.1-0.5-0.2-0.8-0.3l2.4-5.5c0.4,0.2,0.7,0.3,1.1,0.5L45.7,26.6z M35.1,25.5l-1.5-5.8c0.4-0.1,0.8-0.2,1.1-0.3l1.2,5.9
		C35.7,25.4,35.4,25.4,35.1,25.5z M42.5,25.4c-0.3-0.1-0.5-0.1-0.8-0.2l1.1-5.9c0.4,0.1,0.8,0.2,1.1,0.2L42.5,25.4z M38.4,25l-0.2-6
		c0.3,0,0.6,0,0.8,0l0.3,0l-0.1,6L39,25C38.8,25,38.6,25,38.4,25z"/>
	<path class="st2" d="M39,52.3c-0.6,0-1.2,0-1.8-0.1l0.1-0.6c0.5,0.1,1.1,0.1,1.7,0.1L39,52.3z M34.3,51.4c-1.3-0.6-2.5-1.3-3.6-2.3
		l0.4-0.4c1,0.9,2.2,1.7,3.4,2.2L34.3,51.4z M28.7,46.7c-0.8-1.2-1.4-2.5-1.7-3.9l0.6-0.1c0.3,1.3,0.8,2.6,1.6,3.7L28.7,46.7z
		 M27.3,39.8l-0.6,0c0-1.4,0.3-2.9,0.8-4.2l0.6,0.2C27.6,37,27.3,38.4,27.3,39.8z M29.5,33.2L29,32.8c0.8-1.2,1.9-2.2,3.1-3l0.3,0.5
		C31.3,31.1,30.3,32.1,29.5,33.2z M35,29l-0.2-0.6c1.3-0.5,2.8-0.7,4.2-0.7v0.6C37.6,28.3,36.3,28.5,35,29z"/>
</g>
</svg>
