<?xml version="1.0" encoding="UTF-8"?>
<svg width="103px" height="92px" viewBox="0 0 103 92" version="1.1" xmlns="http://www.w3.org/2000/svg" xmlns:xlink="http://www.w3.org/1999/xlink">
    <!-- Generator: Sketch 62 (91390) - https://sketch.com -->
    <title>idea</title>
    <desc>Created with Sketch.</desc>
    <g id="Page-2" stroke="none" stroke-width="1" fill="none" fill-rule="evenodd">
        <g id="Artboard-Copy-7" transform="translate(-40.000000, -1223.000000)">
            <g id="Group-16" transform="translate(-1.000000, 129.000000)">
                <g id="Group-9" transform="translate(0.000000, 336.000000)">
                    <g id="idea" transform="translate(42.500000, 760.000000)">
                        <path d="M50.3430823,29.4615638 C39.5743873,29.4615638 30.7764338,38.369515 30.7764338,49.2728472 C30.7764338,54.973936 33.2398608,60.4612339 37.3924948,64.1669416 C40.4893745,67.3025404 40.20784,74.0013197 40.1374563,74.0725833 C40.1374563,74.4289014 40.20784,74.7139558 40.4893745,74.9990102 C40.7005253,75.2128011 41.0524435,75.3553283 41.333978,75.3553283 L59.2818031,75.3553283 C59.6337212,75.3553283 59.9152557,75.2128011 60.1264066,74.9990102 C60.3375575,74.7852194 60.4783247,74.4289014 60.4783247,74.0725833 C60.4783247,74.0013197 60.1264066,67.3025404 63.2232862,64.1669416 C63.2936699,64.095678 63.3640535,64.0244144 63.4344371,63.9531508 C67.5166875,60.1761795 69.9097309,54.8314088 69.9097309,49.2728472 C69.9097309,38.369515 61.1117774,29.4615638 50.3430823,29.4615638 Z M61.6044628,62.3140878 C61.5340792,62.3853514 61.3933119,62.5278786 61.3933119,62.5991422 C58.6483504,65.5922138 58.155665,70.5094028 58.0852814,72.8611019 L42.5304997,72.8611019 C42.460116,70.5094028 41.9674306,65.378423 39.0113183,62.3140878 C35.280986,59.0359617 33.0990936,54.2612999 33.0990936,49.2015836 C33.0990936,39.5809964 40.770909,31.8132629 50.2726987,31.8132629 C59.7744885,31.8132629 67.4463039,39.5809964 67.4463039,49.2015836 C67.4463039,54.2612999 65.3347951,59.0359617 61.6044628,62.3140878 Z" id="Shape" fill="#FFFFFF" fill-rule="nonzero"></path>
                        <path d="M50.2726987,34.5212801 C49.6392461,34.5212801 49.076177,35.091389 49.076177,35.7327615 C49.076177,36.3741339 49.6392461,36.9442428 50.2726987,36.9442428 C57.3814451,36.9442428 63.082519,42.7878588 63.082519,49.9142197 C63.082519,50.5555922 63.645588,51.1257011 64.2790406,51.1257011 C64.9124933,51.1257011 65.4755623,50.5555922 65.4755623,49.9142197 C65.5459459,41.4338502 58.718734,34.5212801 50.2726987,34.5212801 Z" id="Path" fill="#777474" fill-rule="nonzero"></path>
                        <path d="M58.0852814,76.7093369 L42.460116,76.7093369 C40.8412926,76.7093369 39.5040037,78.0633454 39.5040037,79.7024084 C39.5040037,81.3414715 40.8412926,82.69548 42.460116,82.69548 L58.0148978,82.69548 C59.7041048,82.6242164 61.0413938,81.3414715 61.0413938,79.7024084 C61.0413938,78.0633454 59.7041048,76.7093369 58.0852814,76.7093369 Z M58.0852814,80.2012537 L42.460116,80.2012537 C42.1785815,80.2012537 41.897047,79.9874629 41.897047,79.6311448 C41.897047,79.2748268 42.1081979,79.061036 42.460116,79.061036 L58.0148978,79.061036 C58.2964323,79.061036 58.5779668,79.2748268 58.5779668,79.6311448 C58.5779668,79.9874629 58.3668159,80.2012537 58.0852814,80.2012537 Z" id="Shape" fill="#FFFFFF" fill-rule="nonzero"></path>
                        <path d="M55.7626217,83.9069614 L44.7827758,83.9069614 C43.1639523,83.9069614 41.8266634,85.26097 41.8266634,86.900033 C41.8266634,88.539096 43.1639523,89.8931046 44.7827758,89.8931046 L55.7626217,89.8931046 C57.3814451,89.8931046 58.718734,88.539096 58.718734,86.900033 C58.718734,85.1897064 57.3814451,83.9069614 55.7626217,83.9069614 Z M55.7626217,87.3988783 L44.7827758,87.3988783 C44.5012412,87.3988783 44.2197067,87.1850874 44.2197067,86.8287694 C44.2197067,86.4724513 44.4308576,86.2586605 44.7827758,86.2586605 L55.7626217,86.2586605 C56.0441562,86.2586605 56.3256907,86.4724513 56.3256907,86.8287694 C56.3256907,87.1850874 56.0441562,87.3988783 55.7626217,87.3988783 Z" id="Shape" fill="#FFFFFF" fill-rule="nonzero"></path>
                        <path d="M83.2279958,68.7689892 C86.118533,63.402588 87.7605634,57.251967 87.7605634,50.7142857 C87.7605634,29.806363 70.9665121,12.8571429 50.25,12.8571429 C29.5334879,12.8571429 12.7394366,29.806363 12.7394366,50.7142857 C12.7394366,56.4418813 13.9997496,61.8723953 16.2557592,66.7387665" id="Path" stroke="#FFFFFF" stroke-width="14.25" stroke-dasharray="0,2.849999964237213"></path>
                        <path d="M93.8058435,74.2857143 C97.6235341,67.1557951 99.7922535,58.9839441 99.7922535,50.2978364 C99.7922535,22.5191084 77.6114311,0 50.25,0 C22.8885689,0 0.707746479,22.5191084 0.707746479,50.2978364 C0.707746479,57.9076464 2.37231076,65.1227473 5.3519461,71.5883155" id="Path-Copy" stroke="#BD3738" stroke-width="2.85"></path>
                    </g>
                </g>
            </g>
        </g>
    </g>
</svg>