<svg xmlns="http://www.w3.org/2000/svg" width="52" height="73" viewBox="0 0 52 73">
    <g fill="none" fill-rule="evenodd">
        <path fill="#FFF" fill-rule="nonzero" d="M1 72.62V62.117h1.648V72.62H1zm2.59-2.52v-5.463c0-.845.21-1.496.63-1.952.42-.457 1.03-.685 1.83-.685.802 0 1.412.228 1.832.685.42.456.63 1.107.63 1.952v1.025h-1.56v-1.128c0-.688-.283-1.033-.85-1.033-.571 0-.857.345-.857 1.033v5.67c0 .683.286 1.025.857 1.025.567 0 .85-.342.85-1.026V68.27h-.747v-1.502h2.307v3.333c0 .844-.21 1.495-.63 1.951-.42.457-1.03.685-1.831.685-.8 0-1.411-.228-1.831-.685-.42-.456-.63-1.107-.63-1.951zm5.85 2.52V62.117h2.065l1.699 6.292v-6.292h1.472V72.62h-1.7l-2.05-7.602v7.602H9.439zm6.295 0V62.117h1.648V72.62h-1.648zm2.73 0v-1.59h1.589v1.59h-1.59zm2.333-2.52v-.644h1.56v.747c0 .684.286 1.026.857 1.026s.857-.342.857-1.026c0-.293-.06-.569-.18-.828a2.76 2.76 0 0 0-.461-.699 8.882 8.882 0 0 0-.626-.623 24.02 24.02 0 0 1-.692-.651 6.032 6.032 0 0 1-.63-.722 3.502 3.502 0 0 1-.64-2.043c-.001-.845.205-1.496.618-1.952.412-.457 1.017-.685 1.813-.685.795 0 1.4.228 1.812.685.413.456.62 1.107.62 1.952v.337h-1.56v-.44c0-.688-.277-1.033-.829-1.033-.273 0-.478.082-.615.246-.136.163-.205.426-.205.787 0 .293.06.569.18.828s.273.492.461.7c.188.207.397.414.626.622.23.207.46.425.689.652.23.227.438.467.626.721a3.502 3.502 0 0 1 .64 2.043c0 .845-.21 1.496-.63 1.952-.419.457-1.03.685-1.83.685s-1.411-.228-1.831-.685c-.42-.456-.63-1.107-.63-1.951zm5.256-6.481v-1.502h5.105v1.502H29.43v9.001h-1.648V63.62h-1.728zm5.63 6.496v-7.998h1.647v8.1c0 .684.286 1.026.857 1.026.567 0 .85-.342.85-1.025v-8.1h1.56v7.997c0 .845-.209 1.496-.626 1.952-.418.457-1.027.685-1.828.685-.8 0-1.41-.228-1.83-.685-.42-.456-.63-1.107-.63-1.952zm5.922 2.505V62.117h2.607c.816 0 1.43.222 1.842.667.413.444.62 1.089.62 1.933v5.31c0 .845-.207 1.488-.62 1.93-.412.442-1.026.663-1.842.663h-2.607zm1.648-1.501h.93c.273 0 .482-.08.626-.238.144-.16.216-.42.216-.78v-5.464c0-.362-.072-.622-.216-.78-.144-.159-.353-.238-.626-.238h-.93v7.5zm4.348 1.501V62.117h1.648V72.62h-1.648zm2.59-2.52v-5.463c0-.84.217-1.49.651-1.949.435-.459 1.055-.688 1.86-.688.806 0 1.425.23 1.857.688.433.46.649 1.109.649 1.949V70.1c0 .84-.216 1.489-.649 1.948-.432.459-1.05.688-1.856.688s-1.426-.23-1.86-.688c-.435-.46-.652-1.109-.652-1.948zm1.655.103c0 .693.286 1.04.857 1.04.566 0 .85-.347.85-1.04v-5.669c0-.688-.284-1.033-.85-1.033-.571 0-.857.345-.857 1.033v5.67z"/>
        <g fill="#DE5650">
            <path d="M.4.62h2.04v2.04H.4zM.4 4.7h2.04v2.04H.4zM4.48.62h2.04v2.04H4.48zM2.44.62h2.04v2.04H2.44z"/>
            <path d="M6.52.62h2.04v2.04H6.52zM8.56.62h2.04v2.04H8.56z"/>
            <path d="M10.6.62h2.04v2.04H10.6zM12.64.62h2.04v2.04h-2.04zM16.72.62h2.04v2.04h-2.04zM26.92.62h2.04v2.04h-2.04zM33.04.62h2.04v2.04h-2.04zM37.12.62h2.04v2.04h-2.04zM39.16.62h2.04v2.04h-2.04zM41.2.62h2.04v2.04H41.2zM43.24.62h2.04v2.04h-2.04zM45.28.62h2.04v2.04h-2.04zM47.32.62h2.04v2.04h-2.04zM49.36.62h2.04v2.04h-2.04zM.4 2.66h2.04V4.7H.4zM.4 6.74h2.04v2.04H.4z"/>
            <path d="M.4 8.78h2.04v2.04H.4zM.4 10.82h2.04v2.04H.4zM.4 12.86h2.04v2.04H.4zM2.44 12.86h2.04v2.04H2.44zM.4 16.94h2.04v2.04H.4zM.4 18.98h2.04v2.04H.4zM2.44 18.98h2.04v2.04H2.44zM.4 21.02h2.04v2.04H.4zM2.44 21.02h2.04v2.04H2.44zM2.44 25.1h2.04v2.04H2.44zM.4 27.14h2.04v2.04H.4zM.4 29.18h2.04v2.04H.4zM2.44 31.22h2.04v2.04H2.44zM.4 33.26h2.04v2.04H.4zM2.44 33.26h2.04v2.04H2.44zM.4 37.34h2.04v2.04H.4zM2.44 37.34h2.04v2.04H2.44zM.4 39.38h2.04v2.04H.4zM.4 41.42h2.04v2.04H.4zM.4 43.46h2.04v2.04H.4zM.4 45.5h2.04v2.04H.4zM.4 47.54h2.04v2.04H.4zM.4 49.58h2.04v2.04H.4zM2.44 49.58h2.04v2.04H2.44zM4.48 4.7h2.04v2.04H4.48zM4.48 6.74h2.04v2.04H4.48z"/>
            <path d="M4.48 8.78h2.04v2.04H4.48zM4.48 12.86h2.04v2.04H4.48zM4.48 16.94h2.04v2.04H4.48zM4.48 18.98h2.04v2.04H4.48zM4.48 23.06h2.04v2.04H4.48zM4.48 27.14h2.04v2.04H4.48zM4.48 29.18h2.04v2.04H4.48zM4.48 31.22h2.04v2.04H4.48zM4.48 33.26h2.04v2.04H4.48zM4.48 37.34h2.04v2.04H4.48zM4.48 41.42h2.04v2.04H4.48zM4.48 43.46h2.04v2.04H4.48zM4.48 45.5h2.04v2.04H4.48zM4.48 49.58h2.04v2.04H4.48zM6.52 4.7h2.04v2.04H6.52z"/>
            <path d="M6.52 6.74h2.04v2.04H6.52z"/>
            <path d="M6.52 8.78h2.04v2.04H6.52zM6.52 12.86h2.04v2.04H6.52zM6.52 16.94h2.04v2.04H6.52zM6.52 23.06h2.04v2.04H6.52zM6.52 25.1h2.04v2.04H6.52zM6.52 27.14h2.04v2.04H6.52zM6.52 29.18h2.04v2.04H6.52zM6.52 31.22h2.04v2.04H6.52zM6.52 37.34h2.04v2.04H6.52zM6.52 41.42h2.04v2.04H6.52zM6.52 43.46h2.04v2.04H6.52zM6.52 45.5h2.04v2.04H6.52zM6.52 49.58h2.04v2.04H6.52zM8.56 4.7h2.04v2.04H8.56zM8.56 6.74h2.04v2.04H8.56z"/>
            <path d="M8.56 8.78h2.04v2.04H8.56zM8.56 12.86h2.04v2.04H8.56zM8.56 18.98h2.04v2.04H8.56zM8.56 21.02h2.04v2.04H8.56zM8.56 23.06h2.04v2.04H8.56zM8.56 25.1h2.04v2.04H8.56zM8.56 33.26h2.04v2.04H8.56zM8.56 37.34h2.04v2.04H8.56zM8.56 41.42h2.04v2.04H8.56zM8.56 43.46h2.04v2.04H8.56zM8.56 45.5h2.04v2.04H8.56zM8.56 49.58h2.04v2.04H8.56z"/>
            <path d="M10.6 12.86h2.04v2.04H10.6zM10.6 16.94h2.04v2.04H10.6zM10.6 18.98h2.04v2.04H10.6zM10.6 27.14h2.04v2.04H10.6zM10.6 29.18h2.04v2.04H10.6zM10.6 33.26h2.04v2.04H10.6zM10.6 37.34h2.04v2.04H10.6zM10.6 49.58h2.04v2.04H10.6zM12.64 4.7h2.04v2.04h-2.04zM12.64 2.66h2.04V4.7h-2.04zM12.64 6.74h2.04v2.04h-2.04z"/>
            <path d="M12.64 8.78h2.04v2.04h-2.04zM12.64 10.82h2.04v2.04h-2.04zM12.64 12.86h2.04v2.04h-2.04zM12.64 16.94h2.04v2.04h-2.04zM12.64 21.02h2.04v2.04h-2.04zM12.64 25.1h2.04v2.04h-2.04zM12.64 29.18h2.04v2.04h-2.04zM12.64 33.26h2.04v2.04h-2.04zM12.64 37.34h2.04v2.04h-2.04zM12.64 39.38h2.04v2.04h-2.04zM12.64 41.42h2.04v2.04h-2.04zM12.64 43.46h2.04v2.04h-2.04zM12.64 45.5h2.04v2.04h-2.04zM12.64 47.54h2.04v2.04h-2.04zM12.64 49.58h2.04v2.04h-2.04zM14.68 16.94h2.04v2.04h-2.04zM14.68 18.98h2.04v2.04h-2.04zM14.68 21.02h2.04v2.04h-2.04zM14.68 29.18h2.04v2.04h-2.04zM16.72 2.66h2.04V4.7h-2.04zM16.72 6.74h2.04v2.04h-2.04zM16.72 12.86h2.04v2.04h-2.04zM16.72 14.9h2.04v2.04h-2.04zM16.72 18.98h2.04v2.04h-2.04zM16.72 23.06h2.04v2.04h-2.04zM16.72 29.18h2.04v2.04h-2.04zM16.72 31.22h2.04v2.04h-2.04zM16.72 33.26h2.04v2.04h-2.04zM16.72 35.3h2.04v2.04h-2.04zM16.72 37.34h2.04v2.04h-2.04zM16.72 39.38h2.04v2.04h-2.04zM16.72 43.46h2.04v2.04h-2.04zM16.72 45.5h2.04v2.04h-2.04zM16.72 49.58h2.04v2.04h-2.04zM18.76 2.66h2.04V4.7h-2.04zM18.76 6.74h2.04v2.04h-2.04zM18.76 10.82h2.04v2.04h-2.04zM18.76 14.9h2.04v2.04h-2.04zM18.76 21.02h2.04v2.04h-2.04zM18.76 23.06h2.04v2.04h-2.04zM18.76 25.1h2.04v2.04h-2.04zM18.76 27.14h2.04v2.04h-2.04zM18.76 29.18h2.04v2.04h-2.04zM18.76 31.22h2.04v2.04h-2.04zM18.76 33.26h2.04v2.04h-2.04zM20.8 2.66h2.04V4.7H20.8zM20.8 10.82h2.04v2.04H20.8zM20.8 12.86h2.04v2.04H20.8zM20.8 14.9h2.04v2.04H20.8zM20.8 16.94h2.04v2.04H20.8zM20.8 18.98h2.04v2.04H20.8zM20.8 21.02h2.04v2.04H20.8zM20.8 25.1h2.04v2.04H20.8zM20.8 27.14h2.04v2.04H20.8zM20.8 31.22h2.04v2.04H20.8zM20.8 35.3h2.04v2.04H20.8zM20.8 39.38h2.04v2.04H20.8zM20.8 43.46h2.04v2.04H20.8zM20.8 47.54h2.04v2.04H20.8zM22.84 4.7h2.04v2.04h-2.04zM22.84 6.74h2.04v2.04h-2.04z"/>
            <path d="M22.84 8.78h2.04v2.04h-2.04zM22.84 14.9h2.04v2.04h-2.04zM22.84 16.94h2.04v2.04h-2.04zM22.84 18.98h2.04v2.04h-2.04zM22.84 21.02h2.04v2.04h-2.04zM22.84 23.06h2.04v2.04h-2.04zM22.84 25.1h2.04v2.04h-2.04zM22.84 27.14h2.04v2.04h-2.04zM22.84 33.26h2.04v2.04h-2.04zM22.84 37.34h2.04v2.04h-2.04zM22.84 41.42h2.04v2.04h-2.04zM22.84 45.5h2.04v2.04h-2.04zM24.88 2.66h2.04V4.7h-2.04zM24.88 6.74h2.04v2.04h-2.04zM24.88 10.82h2.04v2.04h-2.04zM24.88 12.86h2.04v2.04h-2.04zM24.88 14.9h2.04v2.04h-2.04zM24.88 16.94h2.04v2.04h-2.04zM24.88 18.98h2.04v2.04h-2.04zM24.88 29.18h2.04v2.04h-2.04zM24.88 31.22h2.04v2.04h-2.04zM24.88 35.3h2.04v2.04h-2.04zM24.88 37.34h2.04v2.04h-2.04zM24.88 39.38h2.04v2.04h-2.04zM24.88 41.42h2.04v2.04h-2.04zM24.88 43.46h2.04v2.04h-2.04zM24.88 45.5h2.04v2.04h-2.04zM24.88 49.58h2.04v2.04h-2.04zM26.92 4.7h2.04v2.04h-2.04zM26.92 2.66h2.04V4.7h-2.04zM26.92 8.78h2.04v2.04h-2.04zM26.92 14.9h2.04v2.04h-2.04zM26.92 16.94h2.04v2.04h-2.04zM26.92 23.06h2.04v2.04h-2.04zM26.92 27.14h2.04v2.04h-2.04zM26.92 31.22h2.04v2.04h-2.04zM26.92 35.3h2.04v2.04h-2.04zM26.92 41.42h2.04v2.04h-2.04zM26.92 43.46h2.04v2.04h-2.04zM26.92 45.5h2.04v2.04h-2.04zM28.96 4.7H31v2.04h-2.04zM28.96 8.78H31v2.04h-2.04zM28.96 10.82H31v2.04h-2.04zM28.96 12.86H31v2.04h-2.04zM28.96 14.9H31v2.04h-2.04zM28.96 16.94H31v2.04h-2.04zM28.96 21.02H31v2.04h-2.04zM28.96 23.06H31v2.04h-2.04zM28.96 29.18H31v2.04h-2.04zM28.96 43.46H31v2.04h-2.04zM28.96 49.58H31v2.04h-2.04zM31 8.78h2.04v2.04H31zM31 25.1h2.04v2.04H31zM31 27.14h2.04v2.04H31zM31 31.22h2.04v2.04H31zM31 35.3h2.04v2.04H31zM31 39.38h2.04v2.04H31zM31 47.54h2.04v2.04H31zM33.04 4.7h2.04v2.04h-2.04zM33.04 2.66h2.04V4.7h-2.04zM33.04 8.78h2.04v2.04h-2.04zM33.04 10.82h2.04v2.04h-2.04zM33.04 12.86h2.04v2.04h-2.04zM33.04 14.9h2.04v2.04h-2.04zM33.04 16.94h2.04v2.04h-2.04zM33.04 18.98h2.04v2.04h-2.04zM33.04 21.02h2.04v2.04h-2.04zM33.04 25.1h2.04v2.04h-2.04zM33.04 27.14h2.04v2.04h-2.04zM33.04 29.18h2.04v2.04h-2.04zM33.04 31.22h2.04v2.04h-2.04zM33.04 33.26h2.04v2.04h-2.04zM33.04 35.3h2.04v2.04h-2.04zM33.04 37.34h2.04v2.04h-2.04zM33.04 39.38h2.04v2.04h-2.04zM33.04 41.42h2.04v2.04h-2.04zM33.04 43.46h2.04v2.04h-2.04zM35.08 25.1h2.04v2.04h-2.04zM35.08 27.14h2.04v2.04h-2.04zM35.08 31.22h2.04v2.04h-2.04zM35.08 33.26h2.04v2.04h-2.04zM35.08 41.42h2.04v2.04h-2.04zM35.08 45.5h2.04v2.04h-2.04zM35.08 47.54h2.04v2.04h-2.04zM37.12 4.7h2.04v2.04h-2.04zM37.12 2.66h2.04V4.7h-2.04zM37.12 6.74h2.04v2.04h-2.04z"/>
            <path d="M37.12 8.78h2.04v2.04h-2.04zM37.12 10.82h2.04v2.04h-2.04zM37.12 12.86h2.04v2.04h-2.04zM37.12 16.94h2.04v2.04h-2.04zM37.12 21.02h2.04v2.04h-2.04zM37.12 23.06h2.04v2.04h-2.04zM37.12 25.1h2.04v2.04h-2.04zM37.12 27.14h2.04v2.04h-2.04zM37.12 29.18h2.04v2.04h-2.04zM37.12 31.22h2.04v2.04h-2.04zM37.12 33.26h2.04v2.04h-2.04zM37.12 37.34h2.04v2.04h-2.04zM37.12 41.42h2.04v2.04h-2.04zM37.12 43.46h2.04v2.04h-2.04zM37.12 45.5h2.04v2.04h-2.04zM37.12 47.54h2.04v2.04h-2.04zM39.16 12.86h2.04v2.04h-2.04zM39.16 18.98h2.04v2.04h-2.04zM39.16 21.02h2.04v2.04h-2.04zM39.16 27.14h2.04v2.04h-2.04zM39.16 33.26h2.04v2.04h-2.04zM39.16 41.42h2.04v2.04h-2.04zM39.16 45.5h2.04v2.04h-2.04zM39.16 49.58h2.04v2.04h-2.04zM41.2 4.7h2.04v2.04H41.2zM41.2 6.74h2.04v2.04H41.2z"/>
            <path d="M41.2 8.78h2.04v2.04H41.2zM41.2 12.86h2.04v2.04H41.2zM41.2 25.1h2.04v2.04H41.2zM41.2 27.14h2.04v2.04H41.2zM41.2 31.22h2.04v2.04H41.2zM41.2 33.26h2.04v2.04H41.2zM41.2 35.3h2.04v2.04H41.2zM41.2 37.34h2.04v2.04H41.2zM41.2 39.38h2.04v2.04H41.2zM41.2 41.42h2.04v2.04H41.2zM41.2 43.46h2.04v2.04H41.2zM41.2 45.5h2.04v2.04H41.2zM41.2 47.54h2.04v2.04H41.2zM41.2 49.58h2.04v2.04H41.2zM43.24 4.7h2.04v2.04h-2.04zM43.24 6.74h2.04v2.04h-2.04z"/>
            <path d="M43.24 8.78h2.04v2.04h-2.04zM43.24 12.86h2.04v2.04h-2.04zM43.24 16.94h2.04v2.04h-2.04zM43.24 23.06h2.04v2.04h-2.04zM43.24 31.22h2.04v2.04h-2.04zM43.24 33.26h2.04v2.04h-2.04zM43.24 37.34h2.04v2.04h-2.04zM43.24 45.5h2.04v2.04h-2.04zM43.24 49.58h2.04v2.04h-2.04zM45.28 4.7h2.04v2.04h-2.04zM45.28 6.74h2.04v2.04h-2.04z"/>
            <path d="M45.28 8.78h2.04v2.04h-2.04zM45.28 12.86h2.04v2.04h-2.04zM45.28 23.06h2.04v2.04h-2.04zM45.28 25.1h2.04v2.04h-2.04zM45.28 29.18h2.04v2.04h-2.04zM45.28 33.26h2.04v2.04h-2.04zM45.28 37.34h2.04v2.04h-2.04zM45.28 43.46h2.04v2.04h-2.04zM45.28 45.5h2.04v2.04h-2.04zM45.28 47.54h2.04v2.04h-2.04zM45.28 49.58h2.04v2.04h-2.04zM47.32 12.86h2.04v2.04h-2.04zM47.32 16.94h2.04v2.04h-2.04zM47.32 18.98h2.04v2.04h-2.04zM47.32 25.1h2.04v2.04h-2.04zM47.32 29.18h2.04v2.04h-2.04zM47.32 33.26h2.04v2.04h-2.04zM47.32 37.34h2.04v2.04h-2.04zM47.32 39.38h2.04v2.04h-2.04zM47.32 43.46h2.04v2.04h-2.04zM47.32 45.5h2.04v2.04h-2.04zM47.32 49.58h2.04v2.04h-2.04zM49.36 4.7h2.04v2.04h-2.04zM49.36 2.66h2.04V4.7h-2.04zM49.36 6.74h2.04v2.04h-2.04z"/>
            <path d="M49.36 8.78h2.04v2.04h-2.04zM49.36 10.82h2.04v2.04h-2.04zM49.36 12.86h2.04v2.04h-2.04zM49.36 16.94h2.04v2.04h-2.04zM49.36 25.1h2.04v2.04h-2.04zM49.36 27.14h2.04v2.04h-2.04zM49.36 31.22h2.04v2.04h-2.04zM49.36 33.26h2.04v2.04h-2.04zM49.36 35.3h2.04v2.04h-2.04zM49.36 37.34h2.04v2.04h-2.04zM49.36 39.38h2.04v2.04h-2.04zM49.36 43.46h2.04v2.04h-2.04zM49.36 49.58h2.04v2.04h-2.04z"/>
        </g>
    </g>
</svg>
