<svg xmlns="http://www.w3.org/2000/svg" width="52" height="73" viewBox="0 0 52 73">
    <g fill="none" fill-rule="evenodd">
        <path fill="#0A0D19" fill-rule="nonzero" d="M1 72.62V62.117h1.648V72.62H1zm2.59-2.52v-5.463c0-.845.21-1.496.63-1.952.42-.457 1.03-.685 1.83-.685.802 0 1.412.228 1.832.685.42.456.63 1.107.63 1.952v1.025h-1.56v-1.128c0-.688-.283-1.033-.85-1.033-.571 0-.857.345-.857 1.033v5.67c0 .683.286 1.025.857 1.025.567 0 .85-.342.85-1.026V68.27h-.747v-1.502h2.307v3.333c0 .844-.21 1.495-.63 1.951-.42.457-1.03.685-1.831.685-.8 0-1.411-.228-1.831-.685-.42-.456-.63-1.107-.63-1.951zm5.85 2.52V62.117h2.065l1.699 6.292v-6.292h1.472V72.62h-1.7l-2.05-7.602v7.602H9.439zm6.295 0V62.117h1.648V72.62h-1.648zm2.73 0v-1.59h1.589v1.59h-1.59zm2.333-2.52v-.644h1.56v.747c0 .684.286 1.026.857 1.026s.857-.342.857-1.026c0-.293-.06-.569-.18-.828a2.76 2.76 0 0 0-.461-.699 8.882 8.882 0 0 0-.626-.623 24.02 24.02 0 0 1-.692-.651 6.032 6.032 0 0 1-.63-.722 3.502 3.502 0 0 1-.64-2.043c-.001-.845.205-1.496.618-1.952.412-.457 1.017-.685 1.813-.685.795 0 1.4.228 1.812.685.413.456.62 1.107.62 1.952v.337h-1.56v-.44c0-.688-.277-1.033-.829-1.033-.273 0-.478.082-.615.246-.136.163-.205.426-.205.787 0 .293.06.569.18.828s.273.492.461.7c.188.207.397.414.626.622.23.207.46.425.689.652.23.227.438.467.626.721a3.502 3.502 0 0 1 .64 2.043c0 .845-.21 1.496-.63 1.952-.419.457-1.03.685-1.83.685s-1.411-.228-1.831-.685c-.42-.456-.63-1.107-.63-1.951zm5.256-6.481v-1.502h5.105v1.502H29.43v9.001h-1.648V63.62h-1.728zm5.63 6.496v-7.998h1.647v8.1c0 .684.286 1.026.857 1.026.567 0 .85-.342.85-1.025v-8.1h1.56v7.997c0 .845-.209 1.496-.626 1.952-.418.457-1.027.685-1.828.685-.8 0-1.41-.228-1.83-.685-.42-.456-.63-1.107-.63-1.952zm5.922 2.505V62.117h2.607c.816 0 1.43.222 1.842.667.413.444.62 1.089.62 1.933v5.31c0 .845-.207 1.488-.62 1.93-.412.442-1.026.663-1.842.663h-2.607zm1.648-1.501h.93c.273 0 .482-.08.626-.238.144-.16.216-.42.216-.78v-5.464c0-.362-.072-.622-.216-.78-.144-.159-.353-.238-.626-.238h-.93v7.5zm4.348 1.501V62.117h1.648V72.62h-1.648zm2.59-2.52v-5.463c0-.84.217-1.49.651-1.949.435-.459 1.055-.688 1.86-.688.806 0 1.425.23 1.857.688.433.46.649 1.109.649 1.949V70.1c0 .84-.216 1.489-.649 1.948-.432.459-1.05.688-1.856.688s-1.426-.23-1.86-.688c-.435-.46-.652-1.109-.652-1.948zm1.655.103c0 .693.286 1.04.857 1.04.566 0 .85-.347.85-1.04v-5.669c0-.688-.284-1.033-.85-1.033-.571 0-.857.345-.857 1.033v5.67z"/>
        <path fill="#DE5650" d="M2.44 43.46v6.12h2.04v2.04H.4v-8.16h2.04zm6.12 6.12v2.04H4.48v-2.04h4.08zm4.08 0v2.04H8.56v-2.04h4.08zm2.04-6.12v8.16h-2.04v-8.16h2.04zm4.08 6.12v2.04h-2.04v-2.04h2.04zm8.16 0v2.04h-2.04v-2.04h2.04zm4.08 0v2.04h-2.04v-2.04H31zm12.24-6.12v8.16h-4.08v-2.04h2.04v-2.04h-2.04V45.5h2.04v-2.04h2.04zm4.08 0v8.16h-4.08v-2.04h2.04v-2.04h-2.04V45.5h2.04v-2.04h2.04zm0 8.16v-2.04h4.08v2.04h-4.08zm-24.48-8.16v2.04h2.04v2.04h-2.04v2.04H20.8v-2.04h2.04V45.5H20.8v-2.04h2.04zm10.2 4.08v2.04H31v-2.04h2.04zm6.12-4.08v6.12h-4.08V45.5h2.04v-2.04h2.04zm-30.6 0v4.08H4.48v-4.08h4.08zm22.44 0v2.04h-2.04v2.04h-4.08v-4.08H31zm20.4 0v2.04h-2.04v2.04h-2.04v-4.08h4.08zm-32.64 0v4.08h-2.04v-4.08h2.04zm-8.16 0v4.08H8.56v-4.08h2.04zm24.48 0v2.04h-2.04v-2.04h2.04zm-20.4-6.12v6.12h-2.04v-6.12h2.04zm-6.12 4.08v2.04H4.48v-2.04h4.08zm2.04 0v2.04H8.56v-2.04h2.04zm24.48-4.08v6.12h-2.04v-2.04H31v-2.04h2.04v-2.04h2.04zm-30.6 0v2.04H2.44v4.08H.4v-6.12h4.08zm34.68 4.08v2.04h-4.08v-2.04h4.08zm4.08-4.08v6.12h-4.08v-2.04h2.04v-4.08h2.04zm-18.36 0v2.04h-2.04v2.04h2.04v2.04h-2.04v-2.04H20.8v-2.04h2.04v-2.04h2.04zm2.04 0v4.08h2.04v2.04h-4.08v-6.12h2.04zm-8.16 0v4.08h-2.04v-4.08h2.04zm32.64 0v4.08h-4.08v-4.08h4.08zm-42.84 0v2.04H4.48v-2.04h4.08zm30.6 0v2.04h-2.04v-2.04h2.04zm8.16 0v2.04h-4.08v-2.04h4.08zm-34.68 0v2.04H8.56v-2.04h4.08zm22.44-6.12v6.12H31V35.3h2.038l.001-2.04H31v-2.04h4.08zm-14.28 0v4.08h-2.04v2.04h-2.04v-6.12h4.08zm2.04 0v2.04h2.04v2.04h-2.04v2.04H20.8V35.3h2.038l.001-2.04H20.8v-2.04h2.04zm6.12 4.08v2.04h-4.08V35.3h4.08zm14.28-4.08v6.12H41.2l-.002-2.04H39.16v-2.04h2.04v-2.04h2.04zm8.16 0v6.12h-2.04l-.002-2.04H47.32v-2.04h2.04v-2.04h2.04zm-46.92 0v4.08H.4v-2.04h2.04v-2.04h2.04zm34.68 0v4.08h-4.08v-4.08h4.08zm-26.52 2.04v2.04H8.56v-2.04h4.08zm32.64-2.04v2.04h2.04v2.04h-4.08v-4.08h2.04zm-36.72 0v2.04H6.52v2.04H4.48v-4.08h4.08zm6.12 2.04v2.04h-2.04v-2.04h2.04zm14.28-2.04v2.04h-4.08v-2.04h4.08zm0-4.08v2.04H31v2.04h-2.04v-2.04h-2.04v2.04h-2.04v-2.04h2.04v-2.04h2.04zm-12.24 2.04v2.04h-4.08v-2.04h4.08zm4.08-6.12v8.16h-4.08v-2.04h2.04V25.1h-2.04v-2.04h4.08zM4.48 25.1v2.04H2.44v4.08H.4v-4.08h2.038l.001-2.04h2.04zm30.6 0v6.12h-2.04v-2.04H31V25.1h4.08zM8.56 23.06v8.16H4.48v-4.08h2.038l.001-2.04H4.48v-2.04h4.08zm2.04 0v4.08h2.04v4.08H10.6l-.002-4.08H8.56v-4.08h2.04zm28.56 0v8.16h-2.04v-2.04h-2.04V25.1h2.04v-2.04h2.04zm8.16 6.12v2.04h-2.04v-2.04h2.04zm4.08-4.08v4.08h-2.04v2.04h-2.04v-2.04h2.04l-.002-2.04H47.32V25.1h4.08zm-26.52-2.04v6.12H20.8V25.1h2.04v-2.04h2.04zm18.36 2.04v4.08h-4.08v-2.04h2.038l.001-2.04h2.04zm4.08-2.04v4.08h-2.04V25.1h-2.04v-2.04h4.08zM14.68 25.1v2.04h-2.04V25.1h2.04zM31 23.06v2.04h-4.08v-2.04H31zm-14.28-6.12v6.12h-4.08v-2.04h2.038l.001-2.04h-2.04v-2.04h4.08zm8.16-2.04v8.16H20.8V14.9h4.08zm-6.12 4.08v2.04h2.04v2.04h-2.04l-.002-2.04H16.72v-2.04h2.04zm-6.12-2.04v4.08H10.6v2.04H8.56v-4.08h2.04v-2.04h2.04zm22.44-2.04v8.16h-2.04V14.9h2.04zM31 21.02v2.04h-2.04v-2.04H31zm8.16 0v2.04h-2.04v-2.04h2.04zM2.44 16.94v2.04h2.04v4.08H.4v-6.12h2.04zm38.76 2.04v4.08h-2.04v-4.08h2.04zM8.56 16.94v2.04H6.52v2.04H4.48v-4.08h4.08zM31 14.9v4.08h-4.08v2.04h-2.04V14.9H31zm20.4 2.04v2.04h-2.04v2.04h-2.04v-4.08h4.08zm-12.24 0v2.04h-2.04v-2.04h2.04zm6.12 0v2.04h-2.04v-2.04h2.04zM20.8 14.9v2.04h-4.08V14.9h4.08zM31 8.78v6.12h-2.04v-4.08h-2.04v4.08h-2.04v-4.08h2.04V8.78H31zm-28.56 0v4.08h2.04v2.04H.4V8.78h2.04zm48.96 0v6.12h-4.08v-2.04h2.038l.001-4.08h2.04zm-12.24 0v6.12h-2.04V8.78h2.04zm4.08 4.08v2.04h-4.08v-2.04h4.08zM24.88 8.78v2.04h-2.04v4.08H20.8v-4.08h2.04V8.78h2.04zm10.2 0v6.12h-2.04v-4.08H31V8.78h4.08zM20.8 10.82v2.04h-2.04v2.04h-2.04v-2.04h2.038l.001-2.04h2.04zm-8.16 2.04v2.04H8.56v-2.04h4.08zm34.68 0v2.04h-4.08v-2.04h4.08zM14.68 8.78v6.12h-2.04V8.78h2.04zm-6.12 4.08v2.04H4.48v-2.04h4.08zm2.04-4.08v2.04H8.56V8.78h2.04zm36.72 0v2.04h-4.08V8.78h4.08zm-4.08 0v2.04H41.2V8.78h2.04zm-34.68 0v2.04H4.48V8.78h4.08zm14.28-6.12V4.7h2.04v4.08h-2.04l-.002-4.08H20.8V2.66h2.04zM39.16.62v8.16h-2.04V.62h2.04zM8.56 4.7v4.08H4.48V4.7h4.08zM51.4.62v8.16h-2.04V2.66h-2.04V.62h4.08zM10.6 4.7v4.08H8.56V4.7h2.04zm16.32 2.04v2.04h-2.04V6.74h2.04zM14.68.62v8.16h-2.04V.62h2.04zM43.24 4.7v4.08H41.2V4.7h2.04zM4.48.62v2.04H2.44v6.12H.4V.62h4.08zM20.8 6.74v2.04h-4.08V6.74h4.08zM47.32 4.7v4.08h-4.08V4.7h4.08zM28.96.62V4.7H31v2.04h-4.08V4.7h-2.04V2.66h2.04V.62h2.04zm6.12 0v6.12h-2.04V.62h2.04zm-16.32 0v2.04h2.04V4.7h-4.08V.62h2.04zm-10.2 0v2.04H4.48V.62h4.08zm4.08 0v2.04H8.56V.62h4.08zm30.6 0v2.04h-4.08V.62h4.08zm4.08 0v2.04h-4.08V.62h4.08z"/>
    </g>
</svg>
