<?xml version="1.0" encoding="iso-8859-1"?>
<!-- Generator: Adobe Illustrator 19.0.0, SVG Export Plug-In . SVG Version: 6.00 Build 0)  -->
<svg version="1.1" id="Layer_1" xmlns="http://www.w3.org/2000/svg" xmlns:xlink="http://www.w3.org/1999/xlink" x="0px" y="0px"
	 viewBox="0 0 512 512" style="enable-background:new 0 0 512 512;" xml:space="preserve">
<g>
	<g>
		<circle cx="441.639" cy="338.1" r="10"/>
	</g>
</g>
<g>
	<g>
		<circle cx="60.965" cy="338.1" r="10"/>
	</g>
</g>
<g>
	<g>
		<path d="M494.298,491.996h-85.876l-0.525-245.772c-0.012-5.517-4.487-9.98-10.001-9.98c-0.007,0-0.015,0-0.022,0
			c-5.524,0.012-9.992,4.499-9.98,10.023l0.525,245.729h-29.049l-0.257-109.348c-0.013-5.516-4.488-9.978-10.001-9.978
			c-0.008,0-0.016,0-0.024,0c-5.524,0.013-9.992,4.501-9.978,10.025l0.257,109.301h-24.285v-132.36
			c28.31-2.503,50.569-25.767,50.569-54.016v-96.924c0-15.412-3.27-30.519-9.525-44.471c19.751,1.319,38.136,9.355,52.28,23.013
			c15.478,14.946,24.027,34.82,24.071,55.971l0.183,56.916c0.018,5.513,4.492,9.97,10.001,9.97c0.011,0,0.022,0,0.033,0
			c5.523-0.018,9.987-4.51,9.97-10.034l-0.183-56.905c-0.057-26.6-10.775-51.569-30.18-70.307
			c-11.084-10.703-24.249-18.63-38.597-23.439c10.163-9.673,16.505-23.323,16.473-38.427c-0.063-29.142-23.79-52.807-52.919-52.807
			c-0.038,0-0.077,0-0.114,0c-8.486,0.019-16.924,2.097-24.401,6.01c-4.894,2.562-6.785,8.606-4.223,13.5
			c2.563,4.894,8.608,6.785,13.5,4.223c4.706-2.463,9.809-3.718,15.168-3.73c18.179-0.009,32.948,14.696,32.987,32.846
			c0.039,18.15-14.696,32.948-32.846,32.987c-0.431,0.001-0.852,0.038-1.267,0.092c-0.533,0.022-1.065,0.041-1.599,0.071
			c-14.45-19.776-34.736-34.122-57.84-41.402c12.266-10.762,20.033-26.535,20.033-44.098C306.652,26.321,280.332,0,247.979,0
			c-32.354,0-58.675,26.321-58.675,58.675c0,18.414,8.534,34.866,21.847,45.631c-21.208,7.654-39.794,21.365-53.292,39.812
			c-1.584-0.071-3.166-0.113-4.74-0.113c-0.748,0-1.494,0.012-2.239,0.028c-0.183-0.01-0.363-0.028-0.548-0.028
			c-18.15,0-32.916-14.766-32.916-32.916c0-18.15,14.766-32.916,32.916-32.916c5.486,0,10.913,1.374,15.693,3.973
			c4.853,2.637,10.925,0.843,13.565-4.01c2.638-4.853,0.843-10.926-4.01-13.565c-7.704-4.189-16.435-6.403-25.249-6.403
			c-29.18,0-52.92,23.74-52.92,52.92c0,15.89,7.05,30.156,18.174,39.865c-37.813,14.581-64.622,50.512-64.622,92.42v56.72
			c0,5.524,4.478,10.002,10.002,10.002c5.524,0,10.002-4.478,10.002-10.002v-56.72c0-41.48,33.116-75.606,75.144-79.055
			c-6.227,13.925-9.484,28.998-9.484,44.378v96.924c0,28.808,23.147,52.433,52.255,54.141v132.234h-27.248V382.668
			c0-5.524-4.478-10.002-10.002-10.002s-10.002,4.478-10.002,10.002v109.328h-24.586v-245.65c0-5.524-4.478-10.002-10.002-10.002
			c-5.524,0-10.002,4.478-10.002,10.002v245.65H17.702c-5.524,0-10.002,4.478-10.002,10.002S12.177,512,17.702,512h476.597
			c5.524,0,10.002-4.478,10.002-10.002C504.299,496.474,499.822,491.996,494.298,491.996z M209.307,58.675
			c0-21.323,17.348-38.671,38.671-38.671s38.67,17.348,38.67,38.671s-17.348,38.671-38.67,38.671
			C226.656,97.346,209.307,79.998,209.307,58.675z M305.079,202.066c-5.524,0-10.002,4.478-10.002,10.002v279.928h-35.622V352.849
			c0-5.524-4.478-10.002-10.002-10.002s-10.002,4.478-10.002,10.002v139.148h-30.565V212.068c0-5.524-4.478-10.002-10.002-10.002
			c-5.524,0-10.002,4.478-10.002,10.002v127.641c-18.067-1.64-32.252-16.299-32.252-34.088v-96.924
			c0-17.31,5.034-34.159,14.558-48.724c17.452-26.689,47.34-42.623,79.95-42.623c32.664,0,62.579,15.975,80.021,42.734
			c9.477,14.54,14.487,31.35,14.487,48.613v96.924c0,17.232-13.31,31.525-30.565,33.895V212.068
			C315.082,206.544,310.603,202.066,305.079,202.066z"/>
	</g>
</g>
<g>
</g>
<g>
</g>
<g>
</g>
<g>
</g>
<g>
</g>
<g>
</g>
<g>
</g>
<g>
</g>
<g>
</g>
<g>
</g>
<g>
</g>
<g>
</g>
<g>
</g>
<g>
</g>
<g>
</g>
</svg>
